<svg width="400" height="400" version="1.1" viewBox="0 0 105.83 105.83" xmlns="http://www.w3.org/2000/svg">
  <g transform="translate(0 -191.17)" opacity=".94">
    <rect y="191.17" width="105.83" height="105.83" fill="#c0c0c0" stroke-width=".52917"/>
    <g stroke-width=".26458">
      <g aria-label="Normal">
        <path d="m42.007 228.72-0.44874-1.1007h-0.11007l0.06773 1.1176v3.5306h-0.8636v-5.9098h1.0329l1.7611 3.5476 0.4572 1.1007h0.11007l-0.06773-1.1176v-3.5306h0.8636v5.9098h-1.0414z"/>
        <path d="m47.604 232.37q-0.42334 0-0.762-0.13547-0.3302-0.13547-0.57574-0.41487-0.23707-0.2794-0.36407-0.7112-0.127-0.44027-0.127-1.0414t0.127-1.0329q0.127-0.44027 0.36407-0.71967 0.24553-0.2794 0.57574-0.41487 0.33867-0.13547 0.762-0.13547 0.41487 0 0.75354 0.13547t0.57574 0.41487q0.24554 0.2794 0.37254 0.71967 0.127 0.4318 0.127 1.0329 0 0.60114-0.127 1.0414-0.127 0.4318-0.37254 0.7112-0.23707 0.2794-0.57574 0.41487t-0.75354 0.13547zm0-0.72814q0.44027 0 0.66887-0.26247 0.23707-0.26247 0.23707-0.79587v-1.0329q0-0.5334-0.23707-0.79586-0.2286-0.26247-0.66887-0.26247t-0.67734 0.26247q-0.2286 0.26246-0.2286 0.79586v1.0329q0 0.5334 0.2286 0.79587 0.23707 0.26247 0.67734 0.26247z"/>
        <path d="m50.339 232.27v-4.4027h0.87207v0.87207h0.1016q0.09313-0.42333 0.34713-0.64347 0.26247-0.2286 0.6604-0.2286h0.22013v0.88901h-0.37254q-0.46567 0-0.7112 0.1778-0.24554 0.1778-0.24554 0.56726v2.7686z"/>
        <path d="m53.276 232.27v-4.4027h0.87207v0.72814h0.1016q0.26247-0.82974 1.0583-0.82974 0.82127 0 1.0922 0.84667h0.09313q0.13547-0.4318 0.4318-0.635 0.29633-0.21167 0.74507-0.21167 0.56727 0 0.88054 0.4064 0.32174 0.39794 0.32174 1.1769v2.921h-0.87207v-2.8025q0-0.46567-0.1778-0.7112-0.16933-0.24554-0.52494-0.24554-0.32174 0-0.5588 0.21167-0.2286 0.2032-0.2286 0.57573v2.9718h-0.87207v-2.8025q0-0.46567-0.1778-0.7112-0.16933-0.24554-0.52494-0.24554-0.3302 0-0.5588 0.21167-0.2286 0.2032-0.2286 0.57573v2.9718z"/>
        <path d="m62.844 232.27q-0.32174 0-0.49954-0.17781-0.1778-0.1778-0.1778-0.5588h-0.1016q-0.09313 0.39794-0.38947 0.61807-0.28787 0.22014-0.7112 0.22014-0.62654 0-0.9398-0.33021-0.3048-0.33866-0.3048-0.94827 0-0.6604 0.42334-1.0075 0.42334-0.34714 1.2446-0.34714h0.72814v-0.42333q0-0.42334-0.18627-0.61807-0.18627-0.2032-0.59267-0.2032-0.31327 0-0.54187 0.13546-0.22013 0.13547-0.4064 0.45721l-0.51647-0.47414q0.22013-0.37253 0.59267-0.6096 0.381-0.23707 0.93134-0.23707 0.79587 0 1.1938 0.38947 0.39793 0.381 0.39793 1.1261v2.2691h0.41487v0.71967zm-1.5917-0.57574q0.18627 0 0.33867-0.0593 0.16087-0.0593 0.27093-0.16086 0.11853-0.1016 0.18627-0.23707 0.06773-0.14394 0.06773-0.3048v-0.60961h-0.6858q-0.82127 0-0.82127 0.59267v0.2032q0 0.29634 0.16933 0.44027 0.1778 0.13547 0.47414 0.13547z"/>
        <path d="m65.088 232.27q-0.4572 0-0.6604-0.20321-0.2032-0.21166-0.2032-0.65193v-5.4102h0.87207v5.5457h0.52494v0.71967z"/>
      </g>
      <g aria-label="½">
        <path d="m50.199 257.17v-0.508h0.77047v-2.0489l-0.70274 0.4064-0.23707-0.44027 0.89747-0.5334h0.66887v2.6162h0.67734v0.508zm2.8702-0.889 1.4563-2.2352h0.6604l-1.4563 2.2352zm-2.4215 3.6745 1.4224-2.1505h0.66887l-1.4309 2.1505zm5.1393 0h-2.1505v-0.56727l0.9144-0.8128q0.2794-0.254 0.381-0.41487 0.11007-0.16933 0.11007-0.36407v-0.11006q0-0.1778-0.11853-0.2794-0.11007-0.1016-0.3048-0.1016-0.2032 0-0.3302 0.11006-0.11853 0.1016-0.19473 0.34714l-0.52494-0.2032q0.254-0.77047 1.1007-0.77047 1.0329 0 1.0329 0.92287 0 0.16933-0.04233 0.32173-0.04233 0.14394-0.13547 0.28787-0.09313 0.14393-0.24553 0.29633-0.14393 0.14394-0.36407 0.32174l-0.62654 0.508h1.4986z"/>
      </g>
      <g aria-label="embedded">
        <path d="m36.412 244q-0.41487 0-0.762-0.13547t-0.59267-0.41487q-0.24553-0.28787-0.38947-0.71967-0.13547-0.4318-0.13547-1.0329 0-0.60114 0.127-1.0329 0.127-0.44027 0.36407-0.71967 0.24553-0.2794 0.57574-0.41487 0.33867-0.13547 0.762-0.13547 0.8382 0 1.3039 0.55034 0.47414 0.55033 0.47414 1.7526v0.22013h-2.6924v0.2794q0 0.52494 0.26247 0.80434 0.27093 0.2794 0.7366 0.2794 0.39793 0 0.65194-0.1778 0.26247-0.1778 0.44027-0.49954l0.508 0.4826q-0.23707 0.41487-0.64347 0.66887-0.39794 0.24554-0.9906 0.24554zm-0.0508-3.9116q-0.44027 0-0.67734 0.27094-0.23707 0.26246-0.23707 0.79587v0.1778h1.7695v-0.1778q0-1.0668-0.85514-1.0668z"/>
        <path d="m39.054 243.89v-4.4027h0.87207v0.72814h0.1016q0.26247-0.82974 1.0583-0.82974 0.82127 0 1.0922 0.84667h0.09313q0.13547-0.4318 0.4318-0.635 0.29633-0.21167 0.74507-0.21167 0.56727 0 0.88054 0.40641 0.32174 0.39793 0.32174 1.1769v2.921h-0.87207v-2.8025q0-0.46567-0.1778-0.7112-0.16933-0.24554-0.52494-0.24554-0.32174 0-0.5588 0.21167-0.2286 0.2032-0.2286 0.57574v2.9718h-0.87207v-2.8025q0-0.46567-0.1778-0.7112-0.16933-0.24554-0.52494-0.24554-0.3302 0-0.5588 0.21167-0.2286 0.2032-0.2286 0.57574v2.9718z"/>
        <path d="m45.793 237.63h0.87207v2.5823h0.1016q0.11007-0.38946 0.38947-0.60113 0.28787-0.22014 0.67734-0.22014 0.7874 0 1.1684 0.60114 0.381 0.59267 0.381 1.7018 0 1.1091-0.381 1.7103-0.381 0.59267-1.1684 0.59267-0.38947 0-0.67734-0.21167-0.2794-0.22013-0.38947-0.6096h-0.1016v0.71967h-0.87207zm1.7272 5.6219q0.44874 0 0.69427-0.2794t0.24553-0.78741v-0.98213q0-0.508-0.24553-0.78741-0.24553-0.2794-0.69427-0.2794-0.37254 0-0.61807 0.19474-0.23707 0.19473-0.23707 0.5334v1.6595q0 0.33867 0.23707 0.5334 0.24553 0.19474 0.61807 0.19474z"/>
        <path d="m51.923 244q-0.41487 0-0.762-0.13547t-0.59267-0.41487q-0.24553-0.28787-0.38947-0.71967-0.13547-0.4318-0.13547-1.0329 0-0.60114 0.127-1.0329 0.127-0.44027 0.36407-0.71967 0.24554-0.2794 0.57574-0.41487 0.33867-0.13547 0.762-0.13547 0.8382 0 1.3039 0.55034 0.47414 0.55033 0.47414 1.7526v0.22013h-2.6924v0.2794q0 0.52494 0.26247 0.80434 0.27094 0.2794 0.7366 0.2794 0.39794 0 0.65194-0.1778 0.26247-0.1778 0.44027-0.49954l0.508 0.4826q-0.23707 0.41487-0.64347 0.66887-0.39794 0.24554-0.9906 0.24554zm-0.0508-3.9116q-0.44027 0-0.67734 0.27094-0.23707 0.26246-0.23707 0.79587v0.1778h1.7695v-0.1778q0-1.0668-0.85514-1.0668z"/>
        <path d="m57.037 243.17h-0.1016q-0.11007 0.38947-0.39794 0.6096-0.2794 0.21167-0.66887 0.21167-0.7874 0-1.1684-0.59267-0.381-0.60114-0.381-1.7103 0-1.1091 0.381-1.7018 0.381-0.60114 1.1684-0.60114 0.38947 0 0.66887 0.22014 0.28787 0.21167 0.39794 0.60113h0.1016v-2.5823h0.87207v6.2654h-0.87207zm-0.85514 0.0762q0.37254 0 0.6096-0.19474 0.24553-0.19473 0.24553-0.5334v-1.6595q0-0.33867-0.24553-0.5334-0.23707-0.19474-0.6096-0.19474-0.44874 0-0.69427 0.2794-0.24553 0.27941-0.24553 0.78741v0.98213q0 0.50801 0.24553 0.78741t0.69427 0.2794z"/>
        <path d="m61.567 243.17h-0.1016q-0.11007 0.38947-0.39794 0.6096-0.2794 0.21167-0.66887 0.21167-0.7874 0-1.1684-0.59267-0.381-0.60114-0.381-1.7103 0-1.1091 0.381-1.7018 0.381-0.60114 1.1684-0.60114 0.38947 0 0.66887 0.22014 0.28787 0.21167 0.39794 0.60113h0.1016v-2.5823h0.87207v6.2654h-0.87207zm-0.85514 0.0762q0.37253 0 0.6096-0.19474 0.24553-0.19473 0.24553-0.5334v-1.6595q0-0.33867-0.24553-0.5334-0.23707-0.19474-0.6096-0.19474-0.44874 0-0.69427 0.2794-0.24553 0.27941-0.24553 0.78741v0.98213q0 0.50801 0.24553 0.78741t0.69427 0.2794z"/>
        <path d="m65.224 244q-0.41487 0-0.762-0.13547t-0.59267-0.41487q-0.24553-0.28787-0.38947-0.71967-0.13547-0.4318-0.13547-1.0329 0-0.60114 0.127-1.0329 0.127-0.44027 0.36407-0.71967 0.24554-0.2794 0.57574-0.41487 0.33867-0.13547 0.762-0.13547 0.8382 0 1.3039 0.55034 0.47414 0.55033 0.47414 1.7526v0.22013h-2.6924v0.2794q0 0.52494 0.26247 0.80434 0.27094 0.2794 0.7366 0.2794 0.39794 0 0.65194-0.1778 0.26247-0.1778 0.44027-0.49954l0.508 0.4826q-0.23707 0.41487-0.64347 0.66887-0.39794 0.24554-0.9906 0.24554zm-0.0508-3.9116q-0.44027 0-0.67734 0.27094-0.23707 0.26246-0.23707 0.79587v0.1778h1.7695v-0.1778q0-1.0668-0.85514-1.0668z"/>
        <path d="m70.338 243.17h-0.1016q-0.11007 0.38947-0.39794 0.6096-0.2794 0.21167-0.66887 0.21167-0.7874 0-1.1684-0.59267-0.381-0.60114-0.381-1.7103 0-1.1091 0.381-1.7018 0.381-0.60114 1.1684-0.60114 0.38947 0 0.66887 0.22014 0.28787 0.21167 0.39794 0.60113h0.1016v-2.5823h0.87207v6.2654h-0.87207zm-0.85514 0.0762q0.37254 0 0.6096-0.19474 0.24553-0.19473 0.24553-0.5334v-1.6595q0-0.33867-0.24553-0.5334-0.23707-0.19474-0.6096-0.19474-0.44874 0-0.69427 0.2794-0.24553 0.27941-0.24553 0.78741v0.98213q0 0.50801 0.24553 0.78741t0.69427 0.2794z"/>
      </g>
    </g>
  </g>
</svg>
