<svg width="6.25in" height="4.17in" version="1.1" viewBox="0 0 600 400" xmlns="http://www.w3.org/2000/svg">
  <g transform="matrix(3.78 0 0 3.78 0 -723)">
    <rect y="191" width="159" height="106" fill-opacity=".267" stroke-width=".648"/>
    <g stroke-width=".265" aria-label="Medium">
      <path d="m70.051 229.57 0.05929-1.0079h-0.10164l-0.40656 0.99099-1.1519 2.4055-1.1434-2.4055-0.40656-0.97405h-0.10164l0.05929 0.99099v3.6421h-0.86394v-5.9121h1.0588l0.95711 2.0667 0.41503 1.1689h0.07623l0.41503-1.1689 0.94864-2.0667h1.0503v5.9121h-0.86394z"/>
      <path d="m73.761 233.32q-0.41503 0-0.7623-0.13552t-0.5929-0.41503q-0.24563-0.28798-0.38962-0.71995-0.13552-0.43197-0.13552-1.0333t0.12705-1.0333q0.12705-0.44044 0.36421-0.71995 0.24563-0.27951 0.57596-0.41503 0.3388-0.13552 0.7623-0.13552 0.83853 0 1.3044 0.55055 0.47432 0.55055 0.47432 1.7533v0.22022h-2.6935v0.27951q0 0.52514 0.26257 0.80465 0.27104 0.27951 0.73689 0.27951 0.39809 0 0.65219-0.17787 0.26257-0.17787 0.44044-0.49973l0.5082 0.48279q-0.23716 0.41503-0.64372 0.66913-0.39809 0.24563-0.99099 0.24563zm-0.05082-3.9131q-0.44044 0-0.6776 0.27104-0.23716 0.26257-0.23716 0.79618v0.17787h1.7702v-0.17787q0-1.0672-0.85547-1.0672z"/>
      <path d="m78.877 232.5h-0.10164q-0.11011 0.38962-0.39809 0.60984-0.27951 0.21175-0.66913 0.21175-0.78771 0-1.1689-0.5929-0.38115-0.60137-0.38115-1.7109t0.38115-1.7025q0.38115-0.60137 1.1689-0.60137 0.38962 0 0.66913 0.22022 0.28798 0.21175 0.39809 0.60137h0.10164v-2.5834h0.87241v6.2678h-0.87241zm-0.85547 0.0762q0.37268 0 0.60984-0.19481 0.24563-0.19481 0.24563-0.53361v-1.6601q0-0.3388-0.24563-0.53361-0.23716-0.19481-0.60984-0.19481-0.44891 0-0.69454 0.27951t-0.24563 0.78771v0.98252q0 0.5082 0.24563 0.78771t0.69454 0.27951z"/>
      <path d="m81.375 227.97q-0.52514 0-0.52514-0.44891v-0.15246q0-0.44891 0.52514-0.44891t0.52514 0.44891v0.15246q0 0.44891-0.52514 0.44891zm-0.43197 0.83853h0.87241v4.4044h-0.87241z"/>
      <path d="m85.39 232.49h-0.11011q-0.26257 0.83006-1.0926 0.83006-0.58443 0-0.91476-0.39809-0.32186-0.40656-0.32186-1.1858v-2.9222h0.87241v2.8036q0 0.95711 0.74536 0.95711 0.3388 0 0.57596-0.20328 0.24563-0.21175 0.24563-0.58443v-2.973h0.87241v4.4044h-0.87241z"/>
      <path d="m87.448 233.22v-4.4044h0.87241v0.72842h0.10164q0.26257-0.83006 1.0588-0.83006 0.82159 0 1.0926 0.847h0.09317q0.13552-0.43197 0.43197-0.63525 0.29645-0.21175 0.74536-0.21175 0.56749 0 0.88088 0.40656 0.32186 0.39809 0.32186 1.1773v2.9222h-0.87241v-2.8036q0-0.46585-0.17787-0.71148-0.1694-0.24563-0.52514-0.24563-0.32186 0-0.55902 0.21175-0.22869 0.20328-0.22869 0.57596v2.973h-0.87241v-2.8036q0-0.46585-0.17787-0.71148-0.1694-0.24563-0.52514-0.24563-0.33033 0-0.55902 0.21175-0.22869 0.20328-0.22869 0.57596v2.973z"/>
    </g>
    <g stroke-width=".265" aria-label="¾">
      <path d="m77.467 255.69q0.19481 0 0.30492-0.0932t0.11011-0.2541v-0.10164q0-0.16093-0.11011-0.2541-0.11011-0.0932-0.30492-0.0932t-0.3388 0.0847q-0.13552 0.0762-0.2541 0.27104l-0.40656-0.35574q0.20328-0.27104 0.44044-0.38962 0.24563-0.12705 0.58443-0.12705 1.0503 0 1.0503 0.82159 0 0.28798-0.16093 0.47432-0.15246 0.17787-0.43197 0.22869v0.0678q0.30492 0.0339 0.47432 0.22022 0.1694 0.18634 0.1694 0.49126 0 0.45738-0.28798 0.69454-0.27951 0.22869-0.83006 0.22869-0.38115 0-0.64372-0.13552-0.2541-0.13552-0.46585-0.44044l0.46585-0.35574q0.11858 0.22869 0.26257 0.32186 0.15246 0.0932 0.37268 0.0932 0.46585 0 0.46585-0.36421v-0.16093q0-0.36421-0.46585-0.36421h-0.33033v-0.5082zm2.0159 0.97405 1.4568-2.2361h0.66066l-1.4568 2.2361zm-2.4224 3.676 1.423-2.1514h0.66913l-1.4314 2.1514zm4.2265 0v-0.60137h-1.3721v-0.52514l1.1519-1.9989h0.81312v2.0497h0.38962v0.47432h-0.38962v0.60137zm0-2.4986h-0.06776l-0.79618 1.423h0.86394z"/>
    </g>
  </g>
</svg>
