<svg width="800" height="533.33" version="1.1" viewBox="0 0 211.67 141.11" xmlns="http://www.w3.org/2000/svg">
  <g transform="translate(0 -155.89)" opacity=".94">
    <rect y="155.89" width="211.67" height="141.11" fill-opacity=".26667" stroke-width=".86413"/>
    <g stroke-width=".26458" aria-label="Normal">
      <path d="m94.83 200.75-0.44874-1.1007h-0.11007l0.06773 1.1176v3.5306h-0.8636v-5.9098h1.0329l1.7611 3.5476 0.4572 1.1007h0.11007l-0.06773-1.1176v-3.5306h0.8636v5.9098h-1.0414z"/>
      <path d="m100.43 204.4q-0.42334 0-0.76201-0.13547-0.3302-0.13547-0.57574-0.41487-0.23707-0.2794-0.36407-0.7112-0.127-0.44027-0.127-1.0414 0-0.60113 0.127-1.0329 0.127-0.44027 0.36407-0.71967 0.24554-0.2794 0.57574-0.41487 0.33867-0.13547 0.76201-0.13547 0.41487 0 0.75353 0.13547 0.33867 0.13547 0.57574 0.41487 0.24553 0.2794 0.37253 0.71967 0.127 0.4318 0.127 1.0329 0 0.60114-0.127 1.0414-0.127 0.4318-0.37253 0.7112-0.23707 0.2794-0.57574 0.41487-0.33866 0.13547-0.75353 0.13547zm0-0.72814q0.44027 0 0.66887-0.26247 0.23706-0.26247 0.23706-0.79587v-1.0329q0-0.5334-0.23706-0.79587-0.2286-0.26246-0.66887-0.26246-0.44027 0-0.67734 0.26246-0.2286 0.26247-0.2286 0.79587v1.0329q0 0.5334 0.2286 0.79587 0.23707 0.26247 0.67734 0.26247z"/>
      <path d="m103.16 204.3v-4.4027h0.87207v0.87207h0.1016q0.0931-0.42333 0.34713-0.64347 0.26247-0.2286 0.66041-0.2286h0.22013v0.889h-0.37253q-0.46567 0-0.71121 0.17781-0.24553 0.1778-0.24553 0.56726v2.7686z"/>
      <path d="m106.1 204.3v-4.4027h0.87207v0.72814h0.1016q0.26247-0.82974 1.0583-0.82974 0.82127 0 1.0922 0.84667h0.0931q0.13547-0.4318 0.43181-0.635 0.29633-0.21167 0.74507-0.21167 0.56726 0 0.88053 0.4064 0.32174 0.39794 0.32174 1.1769v2.921h-0.87207v-2.8025q0-0.46567-0.1778-0.71121-0.16934-0.24553-0.52494-0.24553-0.32173 0-0.5588 0.21167-0.2286 0.2032-0.2286 0.57573v2.9718h-0.87207v-2.8025q0-0.46567-0.1778-0.71121-0.16934-0.24553-0.52494-0.24553-0.3302 0-0.5588 0.21167-0.2286 0.2032-0.2286 0.57573v2.9718z"/>
      <path d="m115.67 204.3q-0.32174 0-0.49954-0.17781-0.1778-0.1778-0.1778-0.5588h-0.1016q-0.0931 0.39794-0.38947 0.61807-0.28787 0.22014-0.7112 0.22014-0.62654 0-0.93981-0.33021-0.3048-0.33866-0.3048-0.94827 0-0.6604 0.42334-1.0075 0.42333-0.34714 1.2446-0.34714h0.72814v-0.42333q0-0.42334-0.18627-0.61807-0.18627-0.2032-0.59267-0.2032-0.31327 0-0.54187 0.13546-0.22013 0.13547-0.4064 0.45721l-0.51647-0.47414q0.22014-0.37253 0.59267-0.6096 0.381-0.23707 0.93134-0.23707 0.79587 0 1.1938 0.38947 0.39794 0.381 0.39794 1.1261v2.2691h0.41487v0.71967zm-1.5917-0.57574q0.18626 0 0.33866-0.0593 0.16087-0.0593 0.27094-0.16086 0.11853-0.1016 0.18627-0.23707 0.0677-0.14394 0.0677-0.3048v-0.60961h-0.6858q-0.82127 0-0.82127 0.59267v0.2032q0 0.29634 0.16933 0.44027 0.1778 0.13547 0.47414 0.13547z"/>
      <path d="m117.91 204.3q-0.4572 0-0.6604-0.20321-0.2032-0.21166-0.2032-0.65193v-5.4102h0.87207v5.5457h0.52493v0.71967z"/>
    </g>
    <g stroke-width=".26458" aria-label="1">
      <path d="m103.96 246.16v-0.77047h1.4139v-4.318l-1.3208 0.85514-0.37253-0.62653 1.6256-1.0499h0.94827v5.1393h1.27v0.77047z"/>
    </g>
  </g>
</svg>
