<svg id="SVGRoot" version="1.1" viewBox="0 0 256 256" xmlns="http://www.w3.org/2000/svg">
 <g transform="scale(1.0008 .99918)" aria-label="PX">
  <path d="m15.987 200.16v-144.11h59.666q18.994 0 28.697 11.768 9.9099 11.768 9.9099 32.414 0 20.646-9.9099 32.414-9.7034 11.768-28.697 11.768h-33.859v55.743zm25.807-78.247h31.175q6.6066 0 10.323-3.5098 3.9227-3.7162 3.9227-11.768v-12.8q0-8.0518-3.9227-11.562-3.7162-3.7162-10.323-3.7162h-31.175z" style="fill:#c9177e;stroke-width:.99898"/>
  <path d="m239.37 200.16h-29.73l-28.078-53.885h-2.6839l-27.665 53.885h-27.665l41.085-73.705-39.02-70.402h29.523l25.601 49.962h2.8904l26.013-49.962h27.665l-39.64 70.195z" style="fill:#ebb923;stroke-width:.99898"/>
 </g>
 <rect x="16" y="22.26" width="224" height="11.75" ry="2.375" style="fill:#0083c0"/>
 <rect x="16" y="222.17" width="224" height="11.75" ry="2.375" style="fill:#00a88a"/>
</svg>
