<svg version="1.1" viewBox="0 0 716.33 190.08" xmlns="http://www.w3.org/2000/svg"><g transform="translate(.28127 -220.92)"><g transform="translate(-13.6,173)" style="fill-opacity:.867;fill:#222" aria-label="PERPLEX"><path d="m13.319 209v-130h53.9q17.2 0 25.9 10.6 8.96 10.6 8.96 29.3t-8.96 29.3q-8.77 10.6-25.9 10.6h-30.6v50.4zm23.3-70.7h28.2q5.97 0 9.33-3.17 3.55-3.36 3.55-10.6v-11.6q0-7.28-3.55-10.5-3.36-3.36-9.33-3.36h-28.2z" style="fill-opacity:.867;fill:#222"/><path d="m122 209v-130h78.2v20.3h-54.9v34h48v19.8h-48v35.8h54.9v20.3z" style="fill-opacity:.867;fill:#222"/><path d="m247 209h-23.3v-130h53.9q17.2 0 25.9 10.5 8.96 10.5 8.96 29.1 0 14.7-5.6 24.5-5.6 9.52-16.4 13.1l23.7 53.2h-25.2l-21.5-51.3h-20.5zm28.2-70.7q5.97 0 9.33-3.17 3.55-3.17 3.55-10.6v-11.6q0-7.47-3.55-10.6-3.36-3.17-9.33-3.17h-28.2v39.2z" style="fill-opacity:.867;fill:#222"/><path d="m336 209v-130h53.9q17.2 0 25.9 10.6 8.96 10.6 8.96 29.3t-8.96 29.3q-8.77 10.6-25.9 10.6h-30.6v50.4zm23.3-70.7h28.2q5.97 0 9.33-3.17 3.55-3.36 3.55-10.6v-11.6q0-7.28-3.55-10.5-3.36-3.36-9.33-3.36h-28.2z" style="fill-opacity:.867;fill:#222"/><path d="m445 209v-130h23.3v110h45.7v20.3z" style="fill-opacity:.867;fill:#222"/><path d="m533 209v-130h78.2v20.3h-54.9v34h48v19.8h-48v35.8h54.9v20.3z" style="fill-opacity:.867;fill:#222"/><path d="m729 209h-26.9l-25.4-48.7h-2.43l-25 48.7h-25l37.1-66.6-35.3-63.7h26.7l23.1 45.2h2.61l23.5-45.2h25l-35.8 63.5z" style="fill-opacity:.867;fill:#222"/></g><rect x="-.28127" y="220.92" width="716.33" height="10" style="fill-opacity:.867;fill:#222;stroke-width:.99604"/><rect x="-.28127" y="401" width="716" height="10" style="fill-opacity:.867;fill:#222;stroke-width:.70711"/></g></svg>
