<svg xmlns="http://www.w3.org/2000/svg" width="396mm" height="468mm" viewBox="0 0 1403.15 1658.268"><g style="line-height:125%;text-align:center" font-weight="400" font-size="180" font-family="IBM Plex Sans" letter-spacing="0" word-spacing="0" text-anchor="middle" fill="#214152"><path d="M125.337 183.445v-12.6h-17.64V70.405h17.64v-12.6h-50.4v12.6h17.64v100.44h-17.64v12.6h50.4zM152.947 183.445h57.06c18.54 0 32.4-15.66 32.4-36.36 0-20.88-15.66-28.62-24.66-29.16v-1.08c8.28-1.26 20.34-7.92 20.34-26.64 0-19.62-12.78-32.4-33.48-32.4h-51.66v125.64zm15.12-58.32h37.26c12.96 0 20.88 6.84 20.88 19.44v6.12c0 12.6-7.92 19.44-20.88 19.44h-37.26v-45zm0-54h34.74c11.88 0 19.08 6.3 19.08 17.46v6.12c0 11.16-7.2 17.46-19.08 17.46h-34.74v-41.04zM368.109 183.445h14.76V57.805h-19.8l-36.18 67.68h-.72l-36-67.68h-19.8v125.64h14.76V77.785h.9l10.62 20.88 29.88 54.72 30.06-54.72 10.62-21.06h.9v105.84zM473.926 183.445v-53.64h34.92c22.5 0 35.1-13.86 35.1-36s-12.6-36-35.1-36h-50.04v125.64h15.12zm0-112.32h34.92c11.88 0 18.9 6.48 18.9 18v9.36c0 11.52-7.02 18-18.9 18h-34.92v-45.36zM594.43 183.445v-12.6h-13.68v-120.6h-14.4v118.26c0 8.64 5.4 14.94 15.3 14.94h12.78zM650.138 185.605c17.46 0 30.78-8.64 36.72-21.24l-10.26-7.38c-4.86 10.26-13.86 16.02-25.56 16.02-17.28 0-27.54-12.06-27.54-28.08v-4.32h66.78v-6.84c0-26.28-15.3-45.36-40.14-45.36-25.2 0-41.76 19.08-41.76 48.6 0 29.52 16.56 48.6 41.76 48.6zm0-85.14c14.76 0 24.66 10.98 24.66 27.36v1.98h-51.3v-1.26c0-16.2 10.98-28.08 26.64-28.08zM715.858 183.445l26.64-37.26h.54l24.66 37.26h16.38l-33.48-47.88 32.76-45h-16.02l-24.48 34.56h-.54l-23.58-34.56h-16.92l32.94 46.08-34.38 46.8h15.48zM882.563 185.605c27 0 43.2-14.76 43.2-37.8 0-18.72-10.62-29.52-35.1-35.1l-10.26-2.34c-15.84-3.6-23.58-9-23.58-20.88 0-13.5 9.9-20.52 25.92-20.52 14.58 0 24.12 5.94 30.96 15.48l11.34-8.28c-9.36-13.32-22.68-20.52-41.58-20.52-24.66 0-41.58 12.06-41.58 34.38 0 19.26 12.6 29.34 35.46 34.56l10.26 2.34c16.56 3.78 23.22 9.72 23.22 21.6 0 14.4-9.72 23.76-27.72 23.76-14.58 0-25.02-6.3-33.84-18l-11.16 9.36c10.08 13.68 24.3 21.96 44.46 21.96zM1025.857 183.445v-12.6h-10.62v-51.12c0-19.62-13.32-31.32-35.64-31.32-16.74 0-27.9 8.28-32.94 18.18l8.64 8.1c5.04-8.46 12.42-13.86 23.58-13.86 14.76 0 21.96 7.2 21.96 20.34v9.18h-18.36c-27 0-39.6 9.72-39.6 27.18 0 17.28 11.52 28.08 31.14 28.08 12.96 0 22.86-5.94 26.82-17.28h.9c1.08 8.64 5.4 15.12 16.02 15.12h8.1zm-49.5-10.08c-11.16 0-18.36-5.22-18.36-14.4v-3.78c0-9 7.38-14.04 23.76-14.04h19.08v15.3c0 9.54-10.26 16.92-24.48 16.92zM1060.634 183.445v-64.44c0-11.88 11.16-17.64 22.68-17.64 13.86 0 21.06 8.46 21.06 25.02v57.06h14.4v-59.58c0-22.5-12.06-35.46-31.14-35.46-13.86 0-21.78 6.84-26.28 17.28h-.72v-15.12h-14.4v92.88h14.4zM1176.438 185.605c21.24 0 34.38-10.98 34.38-28.98 0-14.04-7.92-23.04-28.44-26.1l-7.2-1.08c-11.52-1.8-17.82-5.4-17.82-14.4 0-8.82 6.3-14.4 18.18-14.4 11.88 0 19.8 5.58 23.94 11.34l9.54-8.64c-7.56-9.36-17.46-14.94-32.4-14.94-18.9 0-33.12 9-33.12 27.36 0 17.28 12.78 24.3 29.88 26.82l7.38 1.08c12.24 1.8 16.2 7.38 16.2 14.58 0 9.54-7.2 15.12-19.44 15.12-11.7 0-20.34-5.22-27.54-14.22l-10.26 8.28c8.28 10.98 19.62 18.18 36.72 18.18z" style="-inkscape-font-specification:'IBM Plex Sans'"/></g><g style="line-height:125%;text-align:center"><path d="M1284.41 672.359v-43.75h-36.875v-177.5c0-68.125-46.25-108.75-123.75-108.75-58.125 0-96.875 28.75-114.375 63.125l30 28.125c17.5-29.375 43.125-48.125 81.875-48.125 51.25 0 76.25 25 76.25 70.625v31.875h-63.75c-93.75 0-137.5 33.75-137.5 94.375 0 60 40 97.5 108.125 97.5 45 0 79.375-20.625 93.125-60h3.125c3.75 30 18.75 52.5 55.625 52.5h28.125zm-171.875-35c-38.75 0-63.75-18.125-63.75-50v-13.125c0-31.25 25.625-48.75 82.5-48.75h66.25v53.125c0 33.125-35.625 58.75-85 58.75z" style="-inkscape-font-specification:'IBM Plex Sans'" font-size="625" font-family="IBM Plex Sans" fill="#214152" font-weight="400" letter-spacing="0" word-spacing="0" text-anchor="middle"/></g><g style="line-height:125%;text-align:center" font-weight="400" font-size="180" font-family="IBM Plex Sans" letter-spacing="0" word-spacing="0" text-anchor="middle" fill="#214152"><path d="M183.07 474.369l-43.92-125.64h-19.26l-43.92 125.64h15.3l12.6-37.08h50.76l12.6 37.08h15.84zm-32.22-50.4h-43.38l21.24-61.2h.9l21.24 61.2zM278.745 474.369v-12.6h-10.62v-51.12c0-19.62-13.32-31.32-35.64-31.32-16.74 0-27.9 8.28-32.94 18.18l8.64 8.1c5.04-8.46 12.42-13.86 23.58-13.86 14.76 0 21.96 7.2 21.96 20.34v9.18h-18.36c-27 0-39.6 9.72-39.6 27.18 0 17.28 11.52 28.08 31.14 28.08 12.96 0 22.86-5.94 26.82-17.28h.9c1.08 8.64 5.4 15.12 16.02 15.12h8.1zm-49.5-10.08c-11.16 0-18.36-5.22-18.36-14.4v-3.78c0-9 7.38-14.04 23.76-14.04h19.08v15.3c0 9.54-10.26 16.92-24.48 16.92zM419.781 474.369v-13.32h-61.56v-46.44h57.96v-13.32h-57.96v-39.24h61.56v-13.32h-76.68v125.64h76.68zM479.94 476.529c17.46 0 30.78-8.64 36.72-21.24l-10.26-7.38c-4.86 10.26-13.86 16.02-25.56 16.02-17.28 0-27.54-12.06-27.54-28.08v-4.32h66.78v-6.84c0-26.28-15.3-45.36-40.14-45.36-25.2 0-41.76 19.08-41.76 48.6 0 29.52 16.56 48.6 41.76 48.6zm0-85.14c14.76 0 24.66 10.98 24.66 27.36v1.98h-51.3v-1.26c0-16.2 10.98-28.08 26.64-28.08zM602.908 420.369h29.34l27.18 54h17.1l-28.8-55.44c16.38-3.78 25.2-16.2 25.2-34.56 0-22.86-13.14-35.64-35.1-35.64h-50.04v125.64h15.12v-54zm0-12.96v-45.36h34.92c11.88 0 18.9 6.48 18.9 18v9.36c0 11.52-7.02 18-18.9 18h-34.92zM716.061 474.369v-63c0-8.82 9.36-15.48 24.84-15.48h8.46v-14.4h-5.58c-15.12 0-23.58 8.28-26.82 17.1h-.9v-17.1h-14.4v92.88h14.4z" style="-inkscape-font-specification:'IBM Plex Sans'"/></g><g style="line-height:125%;text-align:center" font-weight="400" font-size="180" font-family="IBM Plex Sans" letter-spacing="0" word-spacing="0" text-anchor="middle" fill="#214152" font-style="italic"><path d="M176.266 660.237l-16.92-125.64h-19.26l-67.14 125.64h15.48l19.44-37.08h48.78l4.68 37.08h14.94zm-21.06-50.04h-40.68l32.04-61.74h.9l7.74 61.74zM277.52 660.237l2.34-12.24h-13.14l16.2-80.64h-13.86l-3.06 15.12h-.72c-2.7-11.7-13.14-17.28-24.3-17.28-30.78 0-45.36 34.38-45.36 61.74 0 21.96 11.34 35.46 28.26 35.46 13.68 0 22.5-6.84 30.06-22.32h.54l-.9 4.14c-.36 1.8-.54 3.42-.54 4.86 0 6.66 3.96 11.16 12.06 11.16h12.42zm-50.22-10.44c-12.06 0-17.46-9.18-17.46-21.06 0-2.88.36-6.12.9-9.18l2.7-13.5c3.6-18 13.5-28.26 29.16-28.26 14.22 0 22.32 10.08 20.7 18.18l-4.5 22.32c-1.8 9-5.4 16.02-11.7 22.32-5.4 5.4-11.16 9.18-19.8 9.18zM418.155 660.237l2.52-12.96h-62.28l9.36-46.98h53.46l2.52-12.96h-53.28l7.92-39.78h59.22l2.7-12.96h-73.98l-25.2 125.64h77.04zM477.86 662.397c13.32 0 26.82-5.04 38.34-19.08l-9-8.1c-7.2 8.82-16.74 14.76-28.44 14.76-14.4 0-22.14-8.82-22.14-21.96 0-1.98.18-5.04.54-7.56 43.2-.36 64.08-10.08 64.08-30.42 0-16.74-14.04-24.84-29.88-24.84-29.16 0-48.6 27.54-48.6 58.32 0 25.2 12.96 38.88 35.1 38.88zm12.06-85.32c8.82 0 17.1 2.88 17.1 12.78 0 12.78-8.28 18.36-48.06 19.8l1.08-5.22c3.42-16.56 15.3-27.36 29.88-27.36zM600.988 606.237h28.44l17.1 54h15.66l-18.36-55.44c20.16-3.96 32.94-20.88 32.94-40.14 0-17.28-9-30.06-31.14-30.06h-44.82l-25.2 125.64h14.58l10.8-54zm2.7-12.78l9-45.9h31.86c12.6 0 17.1 5.94 17.1 14.58 0 2.88-.54 5.22-2.16 13.32-2.34 11.7-10.8 18-22.68 18h-33.12zM701.428 660.237l11.16-55.26c2.52-12.6 11.88-23.4 28.98-23.4h6.48l2.7-14.22h-5.76c-15.12 0-22.86 9.36-27.9 18.54h-.9l3.96-18.54h-13.86l-18.72 92.88h13.86z" style="-inkscape-font-specification:'IBM Plex Sans'"/></g><g style="line-height:125%;text-align:center" font-weight="600" font-size="187.5" font-family="IBM Plex Sans" letter-spacing="0" word-spacing="0" text-anchor="middle" fill="#5a6872"><path d="M524.47 955.202h20.25V824.327h-24.937l-35.062 66.562h-.563l-35.25-66.562h-24.562v130.875h20.25V854.889h.75l10.5 21.375 28.5 52.313 28.875-52.5 10.312-20.813h.938v99.938zM658.43 955.202v-16.688h-10.312v-48.937c0-21.75-14.062-34.125-39.187-34.125-18.938 0-30.375 8.062-36.75 18.937l12.187 11.063c4.875-7.688 11.813-13.313 23.25-13.313 13.688 0 20.063 6.938 20.063 18.75v8.25h-17.625c-27.188 0-41.625 9.938-41.625 29.25 0 17.625 11.437 29.063 31.5 29.063 14.25 0 24.75-6.375 28.5-18.563h.937c1.313 9.563 6.938 16.313 17.625 16.313h11.438zm-52.687-13.313c-10.125 0-16.5-4.5-16.5-13.125v-3.375c0-8.437 6.938-13.125 21.188-13.125h17.25v14.063c0 9.562-9.375 15.562-21.938 15.562zM688.774 840.264c8.437 0 12-4.5 12-10.687v-3.188c0-6.187-3.563-10.687-12-10.687-8.438 0-12.188 4.5-12.188 10.687v3.188c0 6.187 3.75 10.687 12.188 10.687zM678.46 955.202H698.9v-97.5H678.46v97.5zM748.703 955.202v-65.25c0-11.438 10.5-16.875 21.188-16.875 12.562 0 18.375 7.687 18.375 22.875v59.25h20.437v-61.875c0-24-11.812-37.875-31.687-37.875-15 0-23.25 7.875-27.375 18.375h-.938v-16.125h-20.437v97.5h20.437zM842.093 955.202h20.438v-80.813h20.437v-16.687h-20.437v-24.563h20.437v-16.687h-16.125c-16.312 0-24.75 9.375-24.75 25.125v16.125h-14.812v16.687h14.812v80.813zM921.189 955.202v-62.25c0-10.125 9-15.563 25.125-15.563h8.062v-19.687h-5.437c-15.563 0-24 8.812-26.813 18.75h-.937v-18.75H900.75v97.5h20.438zM1053.939 955.202v-16.688h-10.313v-48.937c0-21.75-14.062-34.125-39.187-34.125-18.938 0-30.375 8.062-36.75 18.937l12.187 11.063c4.875-7.688 11.813-13.313 23.25-13.313 13.688 0 20.063 6.938 20.063 18.75v8.25h-17.625c-27.188 0-41.625 9.938-41.625 29.25 0 17.625 11.437 29.063 31.5 29.063 14.25 0 24.75-6.375 28.5-18.563h.937c1.313 9.563 6.938 16.313 17.625 16.313h11.438zm-52.688-13.313c-10.125 0-16.5-4.5-16.5-13.125v-3.375c0-8.437 6.938-13.125 21.188-13.125h17.25v14.063c0 9.562-9.375 15.562-21.938 15.562zM1094.407 955.202v-65.438c0-11.25 9.937-16.687 20.062-16.687 12 0 17.813 7.5 17.813 22.687v59.438h20.437v-65.438c0-11.25 9.563-16.687 19.875-16.687 12.375 0 18 7.687 18 22.687v59.438h20.438v-61.875c0-24-11.438-37.875-30.75-37.875-15.75 0-25.875 9-29.438 19.875h-.563c-4.687-13.5-15.75-19.875-28.874-19.875-14.813 0-22.125 8.25-26.063 18.375h-.938v-16.125h-20.437v97.5h20.438zM1277.746 957.452c18.188 0 32.438-7.875 39.75-19.688l-12-11.812c-5.625 9-13.687 14.625-25.687 14.625-16.5 0-25.688-10.688-25.688-25.688v-3.187h66.938v-7.688c0-27-14.625-48.562-43.313-48.562-27.75 0-44.812 19.875-44.812 51s17.062 51 44.812 51zm0-86.063c13.5 0 21.75 9.938 21.75 24.938v1.875h-45.375v-1.313c0-15 9.563-25.5 23.625-25.5z" style="-inkscape-font-specification:'IBM Plex Sans Semi-Bold'"/></g><path d="M-.002 1076.418h1406.136v581.851H-.002z" fill="#3d70b2" stroke="#000" stroke-width=".997" stroke-dasharray="2.99 2.99"/><g style="line-height:125%;text-align:center" font-weight="400" font-size="137.5" font-family="IBM Plex Sans" letter-spacing="0" word-spacing="0" text-anchor="middle" fill="#f5f7fa"><path d="M129.681 1238.044v-9.625h-8.112v-39.05c0-14.987-10.175-23.925-27.225-23.925-12.788 0-21.313 6.325-25.163 13.888l6.6 6.187c3.85-6.462 9.488-10.587 18.013-10.587 11.275 0 16.775 5.5 16.775 15.537v7.013H96.544c-20.625 0-30.25 7.425-30.25 20.762 0 13.2 8.8 21.45 23.787 21.45 9.9 0 17.463-4.537 20.488-13.2h.687c.825 6.6 4.125 11.55 12.238 11.55h6.187zm-37.812-7.7c-8.525 0-14.025-3.987-14.025-11v-2.887c0-6.875 5.637-10.725 18.15-10.725h14.575v11.687c0 7.288-7.838 12.925-18.7 12.925zM177.742 1238.044h11v-11.55h.55c4.262 8.8 11 13.2 20.762 13.2 17.738 0 28.875-14.437 28.875-37.125 0-22.687-11.137-37.125-28.875-37.125-9.762 0-17.05 4.263-20.762 13.2h-.55v-42.35h-11v101.75zm29.287-8.25c-10.037 0-18.287-5.225-18.287-14.437v-26.4c0-7.838 8.25-13.613 18.287-13.613 12.375 0 20.075 8.525 20.075 21.175v12.1c0 12.65-7.7 21.175-20.075 21.175zM316.397 1239.694c13.475 0 22.688-6.6 27.225-16.775l-7.975-5.362c-3.85 8.112-10.312 12.375-19.25 12.375-13.062 0-19.8-8.938-19.8-21.313v-12.1c0-12.375 6.738-21.312 19.8-21.312 8.663 0 14.713 4.262 17.325 11.55l9.213-4.675c-4.125-9.763-12.513-16.638-26.538-16.638-19.937 0-31.625 14.438-31.625 37.125 0 22.688 11.688 37.125 31.625 37.125zM437.155 1238.044h11v-101.75h-11v42.35h-.55c-3.713-8.937-11-13.2-20.763-13.2-17.737 0-28.875 14.438-28.875 37.125 0 22.688 11.138 37.125 28.875 37.125 9.763 0 16.5-4.4 20.763-13.2h.55v11.55zm-18.288-8.25c-12.375 0-20.075-8.525-20.075-21.175v-12.1c0-12.65 7.7-21.175 20.075-21.175 10.038 0 18.288 5.775 18.288 13.613v26.4c0 9.212-8.25 14.437-18.288 14.437zM530.71 1239.694c13.338 0 23.513-6.6 28.05-16.225l-7.837-5.637c-3.712 7.837-10.587 12.237-19.525 12.237-13.2 0-21.037-9.212-21.037-21.45v-3.3h51.012v-5.225c0-20.075-11.687-34.65-30.662-34.65-19.25 0-31.9 14.575-31.9 37.125s12.65 37.125 31.9 37.125zm0-65.037c11.276 0 18.838 8.387 18.838 20.9v1.512h-39.187v-.962c0-12.375 8.387-21.45 20.35-21.45zM615.845 1238.044h11v-61.325h15.262v-9.625h-15.262v-21.175h15.262v-9.625h-10.725c-10.45 0-15.537 6.738-15.537 16.5v14.3h-11.55v9.625h11.55v61.325zM748.882 1245.882c0-11.688-7.562-18.838-25.162-18.838h-15.125c-6.463 0-10.863-1.1-10.863-5.362 0-4.4 4.675-6.738 9.35-7.975 2.063.412 4.538.687 6.875.687 16.225 0 26.813-10.037 26.813-24.475 0-7.562-3.025-13.887-8.113-18.287v-4.538h13.475v-9.625h-10.587c-5.913 0-8.25 3.988-8.25 9.488v1.237c-3.85-1.787-8.388-2.75-13.475-2.75-16.088 0-26.675 10.038-26.675 24.475 0 9.9 4.95 17.738 13.337 21.725v.55c-7.15 1.788-12.237 5.225-12.237 12.375 0 4.813 2.337 7.975 6.325 9.9v1.513c-7.013 1.925-11.275 6.05-11.275 13.75 0 11.137 9.075 17.462 31.212 17.462 22.825 0 34.375-6.737 34.375-21.312zm-10.312.825c0 7.7-7.15 11.55-19.388 11.55h-10.175c-11.137 0-15.4-5.088-15.4-11.275 0-4.4 2.063-7.563 6.6-9.625h23.65c11 0 14.713 3.712 14.713 9.35zm-24.613-41.113c-9.35 0-15.262-4.4-15.262-13.75v-3.85c0-9.35 5.912-13.75 15.262-13.75 9.35 0 15.263 4.4 15.263 13.75v3.85c0 9.35-5.913 13.75-15.263 13.75zM794.075 1238.044h11v-49.225c0-9.075 8.525-13.475 17.325-13.475 10.587 0 16.087 6.463 16.087 19.113v43.587h11v-45.512c0-17.188-9.212-27.088-23.787-27.088-10.588 0-16.638 5.225-20.075 13.2h-.55v-42.35h-11v101.75zM910.22 1150.457c4.674 0 6.737-2.475 6.737-6.188v-1.787c0-3.713-2.063-6.188-6.738-6.188-4.675 0-6.737 2.475-6.737 6.188v1.787c0 3.713 2.062 6.188 6.737 6.188zm-5.5 87.587h11v-70.95h-11v70.95zM971.59 1255.92h-11.55v9.624h7.15c10.587 0 15.4-6.737 15.4-16.5v-81.95h-11v88.825zm5.5-105.463c4.674 0 6.737-2.475 6.737-6.188v-1.787c0-3.713-2.063-6.188-6.738-6.188-4.675 0-6.737 2.475-6.737 6.188v1.787c0 3.713 2.062 6.188 6.737 6.188zM1038.46 1238.044h11v-25.3l10.587-10.862 23.512 36.162h13.338l-28.875-42.9 26.262-28.05h-13.337l-20.075 21.588-10.863 12.1h-.55v-64.488h-11v101.75zM1164.914 1238.044v-9.625h-10.45v-92.125h-11v90.338c0 6.6 4.125 11.412 11.688 11.412h9.762zM1224.289 1238.044v-49.225c0-9.075 8.25-13.475 16.912-13.475 10.45 0 15.262 6.463 15.262 19.113v43.587h11v-49.225c0-9.075 7.976-13.475 16.638-13.475 10.725 0 15.537 6.6 15.537 19.113v43.587h11v-45.512c0-17.188-8.662-27.088-23.1-27.088-12.1 0-18.974 6.738-21.587 14.438h-.275c-3.85-10.175-12.375-14.438-21.725-14.438-11 0-15.95 5.913-19.113 13.2h-.55v-11.55h-11v70.95h11zM51.644 1409.92v-49.226c0-9.075 8.525-13.475 17.325-13.475 10.588 0 16.088 6.463 16.088 19.113v43.587h11v-45.512c0-17.188-9.213-27.088-23.788-27.088-10.587 0-16.637 5.225-20.075 13.2h-.55v-11.55h-11v70.95h11zM178.101 1411.57c18.975 0 32.038-14.576 32.038-37.126 0-22.55-13.063-37.125-32.038-37.125-18.975 0-32.037 14.575-32.037 37.125s13.063 37.125 32.038 37.125zm0-9.763c-11.825 0-20.212-7.288-20.212-22.275v-10.175c0-14.988 8.387-22.275 20.212-22.275s20.213 7.287 20.213 22.275v10.175c0 14.987-8.387 22.275-20.212 22.275zM260.86 1437.42h11v-39.05h.55c4.262 8.8 11 13.2 20.762 13.2 17.737 0 28.875-14.438 28.875-37.126 0-22.687-11.138-37.125-28.875-37.125-9.763 0-17.05 4.263-20.763 13.2h-.55v-11.55h-11v98.45zm29.287-35.75c-10.038 0-18.288-5.226-18.288-14.438v-26.4c0-7.838 8.25-13.613 18.288-13.613 12.375 0 20.075 8.525 20.075 21.175v12.1c0 12.65-7.7 21.175-20.075 21.175zM418.49 1437.42h11v-98.45h-11v11.55h-.55c-3.712-8.938-11-13.2-20.762-13.2-17.738 0-28.875 14.437-28.875 37.124 0 22.688 11.137 37.125 28.875 37.125 9.762 0 16.5-4.4 20.762-13.2h.55v39.05zm-18.287-35.75c-12.375 0-20.075-8.526-20.075-21.176v-12.1c0-12.65 7.7-21.175 20.075-21.175 10.037 0 18.287 5.775 18.287 13.613v26.4c0 9.212-8.25 14.437-18.287 14.437zM496.371 1409.92v-48.126c0-6.737 7.15-11.825 18.975-11.825h6.463v-11h-4.263c-11.55 0-18.012 6.325-20.487 13.063h-.688v-13.063h-11v70.95h11zM589.667 1411.57c16.225 0 26.262-8.388 26.262-22.138 0-10.725-6.05-17.6-21.725-19.938l-5.5-.825c-8.8-1.375-13.612-4.125-13.612-11 0-6.737 4.812-11 13.887-11s15.125 4.263 18.288 8.663l7.287-6.6c-5.775-7.15-13.337-11.413-24.75-11.413-14.437 0-25.3 6.875-25.3 20.9 0 13.2 9.763 18.563 22.825 20.488l5.638.825c9.35 1.375 12.375 5.637 12.375 11.137 0 7.288-5.5 11.55-14.85 11.55-8.938 0-15.538-3.987-21.038-10.862l-7.837 6.325c6.325 8.387 14.987 13.887 28.05 13.887zM697.145 1409.92v-9.626h-14.438v-51.7h15.538v-9.625h-15.538v-19.662h-9.9v13.2c0 4.812-1.512 6.462-6.187 6.462h-6.6v9.625h11.687v49.638c0 6.875 4.125 11.687 11.688 11.687h13.75zM792.28 1409.92h11v-70.95h-11v49.087c0 9.35-8.525 13.612-17.188 13.612-10.587 0-16.225-6.462-16.225-19.112v-43.588h-11v45.513c0 17.187 9.35 27.087 23.925 27.087 11.825 0 17.188-6.462 19.938-13.2h.55v11.55zM887.662 1409.92l25.025-70.95h-10.588l-12.65 35.2-7.7 24.2h-.687l-7.7-24.2-12.375-35.2h-11l24.887 70.95h12.788zM970.92 1409.92h13.338l9.9-34.1 6.05-21.588h.275l6.187 21.587 9.9 34.1h13.613l18.837-70.95h-10.312l-7.7 30.663-7.288 31.075h-.275l-8.8-31.075-9.212-30.663h-9.763l-8.937 30.663-8.663 31.075h-.275l-7.562-31.075-7.563-30.663h-10.725l18.975 70.95zM1100.432 1409.92l20.35-28.463h.413l18.837 28.462h12.513l-25.575-36.575 25.025-34.375h-12.238l-18.7 26.4h-.412l-18.013-26.4h-12.925l25.163 35.2-26.263 35.75h11.825zM1226.264 1387.232l-3.85 11.55h-.688l-3.3-11.55-17.05-48.263h-11l26.538 73.7-5.362 15.125h-11.138v9.625h5.638c10.45 0 13.337-2.475 16.5-11l31.762-87.45h-10.863l-17.187 48.263zM1348.278 1409.92v-9.626h-42.212l41.112-53.075v-8.25h-52.387v9.625h39.05l-40.288 52.113v9.212h54.725z" style="-inkscape-font-specification:'IBM Plex Sans'"/></g><g style="line-height:125%;text-align:center" font-weight="400" font-size="150" font-family="IBM Plex Sans" letter-spacing="0" word-spacing="0" text-anchor="middle" fill="#f5f7fa"><path d="M163.081 1603.5c25.05 0 36-19.95 36-54.15s-10.95-54.15-36-54.15-36 19.95-36 54.15 10.95 54.15 36 54.15zm0-10.95c-16.35 0-22.8-14.4-22.8-34.65v-17.1c0-20.25 6.45-34.65 22.8-34.65s22.8 14.4 22.8 34.65v17.1c0 20.25-6.45 34.65-22.8 34.65zM325.522 1601.7v-11.1h-27V1497h-13.8l-33.3 19.35 4.95 9.6 29.55-17.55v82.2h-29.25v11.1h68.85zM448.813 1590.6h-55.05l28.2-25.35c13.35-12 22.95-23.4 22.95-39.6 0-17.85-11.7-30.45-32.1-30.45-20.25 0-29.55 12.3-33.6 24.6l11.25 4.35c2.85-9.9 8.85-17.7 21.75-17.7s19.35 7.95 19.35 19.5v1.8c0 10.05-7.5 20.55-17.25 29.55l-34.2 31.5v12.9h68.7v-11.1zM522.003 1541.4v10.95h12.3c14.7 0 22.5 7.05 22.5 19.35v1.2c0 12.3-7.8 19.35-22.5 19.35-12.75 0-18.9-5.55-24.3-13.8l-9.45 7.2c6.45 9 15.75 17.85 33.9 17.85 21.3 0 35.55-12.45 35.55-30.45 0-15.75-10.8-24.15-22.05-26.4v-.6c11.1-2.85 20.1-10.95 20.1-24.45 0-16.95-14.1-26.4-31.8-26.4-16.8 0-25.95 8.7-31.2 17.1l9.3 7.2c4.35-7.95 10.8-13.05 21.6-13.05 11.1 0 18.75 5.55 18.75 16.5v1.05c0 10.05-7.2 17.4-21.3 17.4h-11.4zM687.894 1601.7v-20.55h15.15v-10.5h-15.15V1497h-18.75l-43.8 73.05v11.1h50.55v20.55h12zm-12.75-94.95h.75v63.9h-38.7l37.95-63.9zM819.734 1497h-56.1l-3.75 57.6 10.65 1.5c4.35-4.8 9.15-8.85 18.75-8.85 14.25 0 21.9 7.95 21.9 21.75v1.5c0 13.8-7.65 21.75-21.9 21.75-12.6 0-17.85-5.55-23.25-13.8l-9.45 7.2c6.3 9 15.3 17.85 32.7 17.85 22.05 0 35.25-14.25 35.25-34.65 0-20.25-13.2-32.4-31.2-32.4-10.95 0-16.5 4.5-21.45 11.55h-1.05l3-39.9h45.9V1497zM915.575 1603.5c21 0 34.8-14.1 34.8-34.65 0-19.8-12.9-32.25-30.9-32.25-12.75 0-20.25 6.45-25.2 15l-.75-.3c5.7-24.3 18.15-37.95 40.5-54.3h-16.2c-16.8 10.95-37.35 35.25-37.35 66.3 0 24.9 13.35 40.2 35.1 40.2zm-.15-10.95c-13.8 0-21.9-7.95-21.9-22.05v-1.2c0-14.1 8.1-22.05 21.9-22.05 13.8 0 21.9 7.95 21.9 22.05v1.2c0 14.1-8.1 22.05-21.9 22.05zM1035.566 1601.7l39.3-93.6V1497h-68.7v30.3h11.25v-19.5h44.7l-40.05 93.9h13.5zM1166.206 1603.5c23.85 0 36.3-13.05 36.3-30.3 0-14.25-8.55-22.5-21.15-25.95v-1.2c10.95-3.75 18-12.6 18-24.6 0-15.9-12.3-26.25-33.15-26.25-20.85 0-33.15 10.35-33.15 26.25 0 12 7.05 20.85 18 24.6v1.2c-12.6 3.45-21.15 11.7-21.15 25.95 0 17.25 12.45 30.3 36.3 30.3zm0-10.95c-14.55 0-22.95-6.9-22.95-18.75v-3.15c0-11.85 8.4-18.75 22.95-18.75 14.55 0 22.95 6.9 22.95 18.75v3.15c0 11.85-8.4 18.75-22.95 18.75zm0-51.15c-13.05 0-20.1-5.85-20.1-16.5v-2.25c0-10.65 7.05-16.5 20.1-16.5s20.1 5.85 20.1 16.5v2.25c0 10.65-7.05 16.5-20.1 16.5zM1326.547 1535.4c0-24.9-13.35-40.2-35.1-40.2-21 0-34.8 14.1-34.8 34.65 0 19.8 12.9 32.25 30.9 32.25 12.75 0 20.25-6.45 25.2-15l.75.3c-5.7 24.3-18.15 37.95-40.5 54.3h16.2c16.8-10.95 37.35-35.25 37.35-66.3zm-34.95 16.05c-13.8 0-21.9-7.95-21.9-22.05v-1.2c0-14.1 8.1-22.05 21.9-22.05 13.8 0 21.9 7.95 21.9 22.05v1.2c0 14.1-8.1 22.05-21.9 22.05z" style="-inkscape-font-specification:'IBM Plex Sans'"/></g></svg>