<svg xmlns="http://www.w3.org/2000/svg" viewBox="0 0 90 60">
    <defs>
        <radialGradient id="rg">
            <stop offset="0%" stop-color="#9B1262FF" />
            <stop offset="100%" stop-color="#E0B8CFFF" />
        </radialGradient>
    </defs>
    <rect width="100%" height="100%" fill="url(#rg)" />
    <g id="icon" transform="translate(21,6)">
        <path fill="white" d="M29.8 39q-6.25 0-10.625-4.35T14.8 24q0-6.3 4.375-10.65Q23.55 9 29.8 9q6.3 0 10.65 4.35Q44.8 17.7 44.8 24q0 6.3-4.35 10.65Q36.1 39 29.8 39Zm0-2.25q5.3 0 9.025-3.7 3.725-3.7 3.725-9.05 0-5.3-3.725-9.025Q35.1 11.25 29.8 11.25q-5.3 0-9 3.725T17.1 24q0 5.3 3.7 9.025 3.7 3.725 9 3.725Zm5.15-6.05 1.6-1.55-5.6-5.65v-7.2h-2.3v8.15ZM5.2 17.15v-2.3h7.6v2.3Zm-2 8v-2.3h9.6v2.3Zm2 8v-2.3h7.6v2.3ZM29.8 24Z"/>
    </g>
</svg>
