<svg width="1600" height="900" version="1.1" viewBox="0 0 423 238" xmlns="http://www.w3.org/2000/svg">
  <g transform="translate(0 -58.9)" opacity=".94">
    <rect y="58.9" width="423" height="238" fill="#c0c0c0" stroke-width="1.59"/>
    <g stroke-width=".265" >
      <path d="m191.72 137.02v-5.9121h3.4304v0.78771h-2.5325v1.7279h2.2869v0.77924h-2.2869v1.8295h2.5325v0.78771z"/>
      <path d="m195.74 137.02 1.3806-2.2446-1.3467-2.1598h0.96558l0.86394 1.4907h0.0932l0.86394-1.4907h0.92323l-1.3298 2.1598 1.3806 2.2446h-0.96558l-0.89782-1.5754h-0.10164l-0.90629 1.5754z"/>
      <path d="m201.33 137.02q-0.45738 0-0.66913-0.20328-0.20328-0.20328-0.20328-0.66066v-2.8205h-0.60984v-0.71995h0.3388q0.21175 0 0.27951-0.0932 0.0762-0.10164 0.0762-0.31339v-0.79618h0.78771v1.2027h0.82159v0.71995h-0.82159v2.9645h0.7623v0.71995z"/>
      <path d="m203.02 137.02v-4.4044h0.87241v0.87241h0.10164q0.0932-0.4235 0.34727-0.64372 0.26257-0.22869 0.66066-0.22869h0.22022v0.88935h-0.37268q-0.46585 0-0.71148 0.17787t-0.24563 0.56749v2.7697z"/>
      <path d="m208.74 137.02q-0.32186 0-0.49973-0.17787t-0.17787-0.55902h-0.10164q-0.0932 0.39809-0.38962 0.61831-0.28798 0.22022-0.71148 0.22022-0.62678 0-0.94017-0.33033-0.30492-0.3388-0.30492-0.94864 0-0.66066 0.4235-1.0079t1.2451-0.34727h0.72842v-0.4235q0-0.4235-0.18634-0.61831-0.18634-0.20328-0.5929-0.20328-0.31339 0-0.54208 0.13552-0.22022 0.13552-0.40656 0.45738l-0.51667-0.47432q0.22022-0.37268 0.5929-0.60984 0.38115-0.23716 0.9317-0.23716 0.79618 0 1.1943 0.38962 0.39809 0.38115 0.39809 1.1265v2.27h0.41503v0.71995zm-1.5924-0.57596q0.18634 0 0.3388-0.0593 0.16093-0.0593 0.27104-0.16093 0.11858-0.10164 0.18634-0.23716 0.0678-0.14399 0.0678-0.30492v-0.60984h-0.68607q-0.82159 0-0.82159 0.5929v0.20328q0 0.29645 0.1694 0.44044 0.17787 0.13552 0.47432 0.13552z"/>
      <path d="m211.97 137.02v-5.9121h0.89782v5.1244h2.1514v0.78771z"/>
      <path d="m218.7 137.02q-0.32186 0-0.49973-0.17787t-0.17787-0.55902h-0.10164q-0.0932 0.39809-0.38962 0.61831-0.28798 0.22022-0.71148 0.22022-0.62678 0-0.94017-0.33033-0.30492-0.3388-0.30492-0.94864 0-0.66066 0.4235-1.0079t1.2451-0.34727h0.72842v-0.4235q0-0.4235-0.18634-0.61831-0.18634-0.20328-0.5929-0.20328-0.31339 0-0.54208 0.13552-0.22022 0.13552-0.40656 0.45738l-0.51667-0.47432q0.22022-0.37268 0.5929-0.60984 0.38115-0.23716 0.9317-0.23716 0.79618 0 1.1943 0.38962 0.39809 0.38115 0.39809 1.1265v2.27h0.41503v0.71995zm-1.5924-0.57596q0.18634 0 0.3388-0.0593 0.16093-0.0593 0.27104-0.16093 0.11858-0.10164 0.18634-0.23716 0.0678-0.14399 0.0678-0.30492v-0.60984h-0.68607q-0.82159 0-0.82159 0.5929v0.20328q0 0.29645 0.1694 0.44044 0.17787 0.13552 0.47432 0.13552z"/>
      <path d="m220.08 137.02v-4.4044h0.87241v0.87241h0.10164q0.0932-0.4235 0.34727-0.64372 0.26257-0.22869 0.66066-0.22869h0.22022v0.88935h-0.37268q-0.46585 0-0.71148 0.17787t-0.24563 0.56749v2.7697z"/>
      <path d="m226.35 137.45q0 0.34727-0.11011 0.60137t-0.35574 0.4235-0.63525 0.2541q-0.38115 0.0847-0.94017 0.0847-0.49973 0-0.847-0.0762-0.34727-0.0678-0.56749-0.20328-0.21175-0.13552-0.30492-0.3388-0.0932-0.19481-0.0932-0.44891 0-0.3388 0.17787-0.54208 0.18634-0.19481 0.5082-0.24563v-0.14399q-0.23716-0.0847-0.35574-0.2541-0.11011-0.1694-0.11011-0.40656 0-0.29645 0.18634-0.47432 0.19481-0.18634 0.51667-0.23716v-0.10164q-0.71148-0.36421-0.71148-1.3213 0-0.72842 0.39809-1.118 0.40656-0.38962 1.2027-0.38962 0.38962 0 0.71148 0.12705v-0.14399q0-0.55055 0.52514-0.55055h0.60984v0.70301h-0.81309v0.19481q0.27104 0.1694 0.41503 0.47432 0.15246 0.29645 0.15246 0.70301 0 0.72842-0.40656 1.118-0.39809 0.38115-1.1943 0.38115-0.15246 0-0.29645-0.0169-0.13552-0.0169-0.26257-0.0423-0.1694 0.0508-0.2541 0.17787-0.0847 0.11858-0.0847 0.26257 0 0.1694 0.11011 0.2541 0.11858 0.0847 0.38115 0.0847h1.0588q0.75383 0 1.0672 0.31339 0.32186 0.31339 0.32186 0.89782zm-0.82159 0.0847q0-0.24563-0.16093-0.38115t-0.54208-0.13552h-1.3552q-0.2541 0.17787-0.2541 0.52514 0 0.29645 0.18634 0.45738 0.19481 0.1694 0.65219 0.1694h0.52514q0.49973 0 0.71995-0.16093 0.22869-0.15246 0.22869-0.47432zm-1.2197-2.6511q0.75383 0 0.75383-0.74536v-0.2541q0-0.74536-0.75383-0.74536t-0.75383 0.74536v0.2541q0 0.74536 0.75383 0.74536z"/>
      <path d="m228.51 137.12q-0.41503 0-0.7623-0.13552t-0.5929-0.41503q-0.24563-0.28798-0.38962-0.71995-0.13552-0.43197-0.13552-1.0333t0.12705-1.0333q0.12705-0.44044 0.36421-0.71995 0.24563-0.27951 0.57596-0.41503 0.3388-0.13552 0.7623-0.13552 0.83853 0 1.3044 0.55055 0.47432 0.55055 0.47432 1.7533v0.22022h-2.6935v0.27951q0 0.52514 0.26257 0.80465 0.27104 0.27951 0.73689 0.27951 0.39809 0 0.65219-0.17787 0.26257-0.17787 0.44044-0.49973l0.5082 0.48279q-0.23716 0.41503-0.64372 0.66913-0.39809 0.24563-0.99099 0.24563zm-0.0508-3.9131q-0.44044 0-0.6776 0.27104-0.23716 0.26257-0.23716 0.79618v0.17787h1.7702v-0.17787q0-1.0672-0.85547-1.0672z"/>
    </g>
    <g stroke-width=".265" >
      <path d="m213.28 229.53h-3.6336v-0.87241l1.7194-1.7448q0.43197-0.44044 0.61831-0.78771 0.19481-0.34727 0.19481-0.70301v-0.24563q0-0.88088-0.82159-0.88088-0.38962 0-0.64372 0.22869t-0.34727 0.66066l-0.78771-0.30492q0.19481-0.66066 0.66066-1.0079 0.47432-0.35574 1.1689-0.35574 0.90629 0 1.3128 0.44044t0.40656 1.2451q0 0.29645-0.0593 0.55055-0.0508 0.24563-0.18634 0.49973-0.13552 0.24563-0.36421 0.52514t-0.57596 0.63525l-1.3213 1.3467h2.6596z"/>
    </g>
  </g>
</svg>
