<svg width="400" height="267" version="1.1" viewBox="0 0 105.83 70.644" xmlns="http://www.w3.org/2000/svg">
  <g transform="translate(0 -226.36)" opacity=".94">
    <rect y="226.36" width="105.83" height="70.644" fill="#c0c0c0" stroke-width=".43233"/>
    <g stroke-width=".26458" >
      <path d="m44.19 250.81q-0.6604 0-1.1515-0.24553-0.4826-0.254-0.82973-0.72813l0.61807-0.56727q0.26247 0.36407 0.60113 0.5588t0.77047 0.19473q1.0499 0 1.0499-0.9652 0-0.38946-0.18627-0.59266-0.18627-0.21167-0.64347-0.32174l-0.4826-0.1016q-0.79587-0.1778-1.1769-0.56726-0.37253-0.39794-0.37253-1.1091 0-0.82126 0.49107-1.2446 0.49953-0.42333 1.3885-0.42333 0.635 0 1.0668 0.22013 0.44027 0.21167 0.762 0.66887l-0.61807 0.54187q-0.2286-0.32174-0.51647-0.4826-0.2794-0.16087-0.7112-0.16087-0.4826 0-0.72813 0.2032-0.23707 0.19473-0.23707 0.65193 0 0.37254 0.18627 0.56727 0.19473 0.18627 0.62653 0.28787l0.4826 0.11006q0.42333 0.0931 0.71967 0.23707 0.29633 0.13547 0.4826 0.33867 0.19473 0.2032 0.2794 0.4826 0.08467 0.27093 0.08467 0.635 0 0.889-0.51647 1.3547-0.508 0.4572-1.4393 0.4572z"/>
      <path d="m47.085 250.71v-4.4027h0.87207v0.72813h0.1016q0.26247-0.82973 1.0583-0.82973 0.82127 0 1.0922 0.84666h0.09313q0.13547-0.4318 0.4318-0.635 0.29633-0.21166 0.74507-0.21166 0.56727 0 0.88053 0.4064 0.32173 0.39793 0.32173 1.1769v2.921h-0.87207v-2.8025q0-0.46567-0.1778-0.7112-0.16933-0.24554-0.52493-0.24554-0.32173 0-0.5588 0.21167-0.2286 0.2032-0.2286 0.57573v2.9718h-0.87207v-2.8025q0-0.46567-0.1778-0.7112-0.16933-0.24554-0.52493-0.24554-0.3302 0-0.5588 0.21167-0.2286 0.2032-0.2286 0.57573v2.9718z"/>
      <path d="m56.652 250.71q-0.32173 0-0.49953-0.1778t-0.1778-0.5588h-0.1016q-0.09313 0.39794-0.38947 0.61807-0.28787 0.22013-0.7112 0.22013-0.62653 0-0.9398-0.3302-0.3048-0.33866-0.3048-0.94826 0-0.6604 0.42333-1.0075 0.42333-0.34713 1.2446-0.34713h0.72813v-0.42333q0-0.42334-0.18627-0.61807-0.18627-0.2032-0.59267-0.2032-0.31327 0-0.54187 0.13547-0.22013 0.13546-0.4064 0.4572l-0.51647-0.47414q0.22013-0.37253 0.59267-0.6096 0.381-0.23706 0.93133-0.23706 0.79587 0 1.1938 0.38946 0.39793 0.381 0.39793 1.1261v2.2691h0.41487v0.71966zm-1.5917-0.57573q0.18627 0 0.33867-0.0593 0.16087-0.0593 0.27093-0.16086 0.11853-0.1016 0.18627-0.23707 0.06773-0.14393 0.06773-0.3048v-0.6096h-0.6858q-0.82127 0-0.82127 0.59267v0.2032q0 0.29633 0.16933 0.44026 0.1778 0.13547 0.47413 0.13547z"/>
      <path d="m58.896 250.71q-0.4572 0-0.6604-0.2032-0.2032-0.21166-0.2032-0.65193v-5.4102h0.87207v5.5457h0.52493v0.71966z"/>
      <path d="m61.013 250.71q-0.4572 0-0.6604-0.2032-0.2032-0.21166-0.2032-0.65193v-5.4102h0.87207v5.5457h0.52493v0.71966z"/>
    </g>
    <g stroke-width=".26458" >
      <path d="m50.199 280.43v-0.508h0.77047v-2.0489l-0.70273 0.4064-0.23707-0.44027 0.89747-0.5334h0.66887v2.6162h0.67733v0.508zm2.8702-0.889 1.4563-2.2352h0.6604l-1.4563 2.2352zm-2.4215 3.6745 1.4224-2.1505h0.66887l-1.4309 2.1505zm5.1393 0h-2.1505v-0.56726l0.9144-0.8128q0.2794-0.254 0.381-0.41487 0.11007-0.16933 0.11007-0.36407v-0.11006q0-0.1778-0.11853-0.2794-0.11007-0.1016-0.3048-0.1016-0.2032 0-0.3302 0.11006-0.11853 0.1016-0.19473 0.34714l-0.52493-0.2032q0.254-0.77047 1.1007-0.77047 1.0329 0 1.0329 0.92287 0 0.16933-0.04233 0.32173-0.04233 0.14393-0.13547 0.28787-0.09313 0.14393-0.24553 0.29633-0.14393 0.14393-0.36407 0.32173l-0.62653 0.508h1.4986z"/>
    </g>
  </g>
</svg>
