<?xml version="1.0" encoding="UTF-8" standalone="no"?>
<svg
   xmlns:dc="http://purl.org/dc/elements/1.1/"
   xmlns:cc="http://creativecommons.org/ns#"
   xmlns:rdf="http://www.w3.org/1999/02/22-rdf-syntax-ns#"
   xmlns:svg="http://www.w3.org/2000/svg"
   xmlns="http://www.w3.org/2000/svg"
   xmlns:sodipodi="http://sodipodi.sourceforge.net/DTD/sodipodi-0.dtd"
   xmlns:inkscape="http://www.inkscape.org/namespaces/inkscape"
   version="1.1"
   viewBox="0 0 716.32538 190.076"
   id="svg24"
   sodipodi:docname="Logo_Perplex_colored.svg"
   width="716.32538"
   height="190.076"
   inkscape:version="0.92.5 (2060ec1f9f, 2020-04-08)">
  <metadata
     id="metadata30">
    <rdf:RDF>
      <cc:Work
         rdf:about="">
        <dc:format>image/svg+xml</dc:format>
        <dc:type
           rdf:resource="http://purl.org/dc/dcmitype/StillImage" />
        <dc:title></dc:title>
      </cc:Work>
    </rdf:RDF>
  </metadata>
  <defs
     id="defs28" />
  <sodipodi:namedview
     pagecolor="#ffffff"
     bordercolor="#666666"
     borderopacity="1"
     objecttolerance="10"
     gridtolerance="10"
     guidetolerance="10"
     inkscape:pageopacity="0"
     inkscape:pageshadow="2"
     inkscape:window-width="2560"
     inkscape:window-height="1376"
     id="namedview26"
     showgrid="false"
     inkscape:snap-grids="false"
     fit-margin-top="0"
     fit-margin-left="0"
     fit-margin-right="0"
     fit-margin-bottom="0"
     inkscape:showpageshadow="false"
     showborder="false"
     inkscape:zoom="1.2569832"
     inkscape:cx="51.597871"
     inkscape:cy="68.713717"
     inkscape:window-x="1920"
     inkscape:window-y="662"
     inkscape:window-maximized="1"
     inkscape:current-layer="svg24" />
  <g
     transform="translate(0.28127137,-220.924)"
     id="g22">
    <g
       transform="translate(-13.6,173)"
       style="fill:#222222;fill-opacity:0.86699997"
       aria-label="PERPLEX"
       id="g16">
      <path
         d="M 13.318729,209 V 79 h 53.9 q 17.2,0 25.9,10.6 8.960001,10.6 8.960001,29.3 0,18.7 -8.960001,29.3 -8.77,10.6 -25.9,10.6 h -30.6 v 50.4 z m 23.3,-70.7 h 28.2 q 5.97,0 9.33,-3.17 3.55,-3.36 3.55,-10.6 v -11.6 q 0,-7.28 -3.55,-10.5 -3.36,-3.36 -9.33,-3.36 h -28.2 z"
         style="fill:#c9177e;fill-opacity:1"
         id="path2"
         inkscape:connector-curvature="0" />
      <path
         d="M 122,209 V 79 h 78.2 v 20.3 h -54.9 v 34 h 48 v 19.8 h -48 v 35.8 h 54.9 v 20.3 z"
         style="fill:#000000;fill-opacity:0.5"
         id="path4"
         inkscape:connector-curvature="0" />
      <path
         d="M 247,209 H 223.7 V 79 h 53.9 q 17.2,0 25.9,10.5 8.96,10.5 8.96,29.1 0,14.7 -5.6,24.5 -5.6,9.52 -16.4,13.1 l 23.7,53.2 h -25.2 l -21.5,-51.3 h -20.5 z m 28.2,-70.7 q 5.97,0 9.33,-3.17 3.55,-3.17 3.55,-10.6 v -11.6 q 0,-7.47 -3.55,-10.6 -3.36,-3.17 -9.33,-3.17 H 247 v 39.2 z"
         style="fill:#0083c0;fill-opacity:1"
         id="path6"
         inkscape:connector-curvature="0" />
      <path
         d="M 336,209 V 79 h 53.9 q 17.2,0 25.9,10.6 8.96,10.6 8.96,29.3 0,18.7 -8.96,29.3 -8.77,10.6 -25.9,10.6 h -30.6 v 50.4 z m 23.3,-70.7 h 28.2 q 5.97,0 9.33,-3.17 3.55,-3.36 3.55,-10.6 v -11.6 q 0,-7.28 -3.55,-10.5 -3.36,-3.36 -9.33,-3.36 h -28.2 z"
         style="fill:#000000;fill-opacity:0.50236966"
         id="path8"
         inkscape:connector-curvature="0" />
      <path
         d="M 445,209 V 79 h 23.3 V 189 H 514 v 20.3 z"
         style="fill:#00a88a;fill-opacity:1"
         id="path10"
         inkscape:connector-curvature="0" />
      <path
         d="M 533,209 V 79 h 78.2 v 20.3 h -54.9 v 34 h 48 v 19.8 h -48 v 35.8 h 54.9 v 20.3 z"
         style="fill:#000000;fill-opacity:0.50196078"
         id="path12"
         inkscape:connector-curvature="0" />
      <path
         d="m 729,209 h -26.9 l -25.4,-48.7 h -2.43 l -25,48.7 h -25 l 37.1,-66.6 -35.3,-63.7 h 26.7 l 23.1,45.2 h 2.61 l 23.5,-45.2 h 25 l -35.8,63.5 z"
         style="fill:#ebb923;fill-opacity:1"
         id="path14"
         inkscape:connector-curvature="0" />
    </g>
    <rect
       y="220.924"
       width="716.32538"
       height="10"
       style="fill:#000000;fill-opacity:0.50196078;stroke-width:0.99603951"
       id="rect18"
       x="-0.28127137"
       ry="1.8894414" />
    <rect
       y="401"
       width="716"
       height="10"
       style="fill:#000000;fill-opacity:0.50236966;stroke-width:0.70710677"
       id="rect20"
       x="-0.28127137"
       ry="2.1877778" />
  </g>
</svg>
