<svg width="200" height="200" version="1.1" viewBox="0 0 52.917 52.917" xmlns="http://www.w3.org/2000/svg">
  <g transform="translate(0 -244.08)">
    <rect x="3.7529e-6" y="244.08" width="52.917" height="52.917" fill-opacity=".26667" stroke-width=".26458"/>
    <g stroke-width=".26458">
      <g aria-label="Small">
        <path d="m18.8 258.93q-0.6604 0-1.1515-0.24553-0.4826-0.254-0.82974-0.72814l0.61807-0.56727q0.26247 0.36407 0.60114 0.5588 0.33867 0.19474 0.77047 0.19474 1.0499 0 1.0499-0.96521 0-0.38946-0.18627-0.59266-0.18627-0.21167-0.64347-0.32174l-0.4826-0.1016q-0.79587-0.1778-1.1769-0.56727-0.37254-0.39793-0.37254-1.1091 0-0.82127 0.49107-1.2446 0.49954-0.42334 1.3885-0.42334 0.635 0 1.0668 0.22014 0.44027 0.21167 0.762 0.66887l-0.61807 0.54187q-0.2286-0.32174-0.51647-0.48261-0.2794-0.16086-0.7112-0.16086-0.4826 0-0.72814 0.2032-0.23707 0.19473-0.23707 0.65193 0 0.37254 0.18627 0.56727 0.19473 0.18627 0.62654 0.28787l0.4826 0.11007q0.42334 0.0931 0.71967 0.23707 0.29633 0.13546 0.4826 0.33866 0.19473 0.2032 0.2794 0.48261 0.08467 0.27093 0.08467 0.635 0 0.889-0.51647 1.3547-0.508 0.4572-1.4393 0.4572z"/>
        <path d="m21.696 258.82v-4.4027h0.87207v0.72813h0.1016q0.26247-0.82973 1.0583-0.82973 0.82127 0 1.0922 0.84667h0.09313q0.13547-0.4318 0.4318-0.63501 0.29633-0.21166 0.74507-0.21166 0.56727 0 0.88054 0.4064 0.32173 0.39793 0.32173 1.1769v2.921h-0.87207v-2.8025q0-0.46566-0.1778-0.7112-0.16933-0.24553-0.52494-0.24553-0.32173 0-0.5588 0.21166-0.2286 0.2032-0.2286 0.57574v2.9718h-0.87207v-2.8025q0-0.46566-0.1778-0.7112-0.16933-0.24553-0.52494-0.24553-0.3302 0-0.5588 0.21166-0.2286 0.2032-0.2286 0.57574v2.9718z"/>
        <path d="m31.263 258.82q-0.32173 0-0.49954-0.1778t-0.1778-0.5588h-0.1016q-0.09313 0.39793-0.38947 0.61807-0.28787 0.22013-0.7112 0.22013-0.62654 0-0.9398-0.3302-0.3048-0.33867-0.3048-0.94827 0-0.6604 0.42334-1.0075 0.42334-0.34713 1.2446-0.34713h0.72814v-0.42334q0-0.42333-0.18627-0.61807-0.18627-0.2032-0.59267-0.2032-0.31327 0-0.54187 0.13547-0.22013 0.13547-0.4064 0.4572l-0.51647-0.47413q0.22013-0.37254 0.59267-0.60961 0.381-0.23706 0.93134-0.23706 0.79587 0 1.1938 0.38947 0.39794 0.381 0.39794 1.1261v2.2691h0.41487v0.71967zm-1.5917-0.57573q0.18627 0 0.33867-0.0593 0.16087-0.0593 0.27093-0.16087 0.11853-0.1016 0.18627-0.23707 0.06773-0.14393 0.06773-0.3048v-0.6096h-0.6858q-0.82127 0-0.82127 0.59267v0.2032q0 0.29633 0.16933 0.44027 0.1778 0.13547 0.47414 0.13547z"/>
        <path d="m33.507 258.82q-0.4572 0-0.6604-0.2032-0.2032-0.21167-0.2032-0.65194v-5.4102h0.87207v5.5457h0.52494v0.71967z"/>
        <path d="m35.624 258.82q-0.4572 0-0.6604-0.2032-0.2032-0.21167-0.2032-0.65194v-5.4102h0.87207v5.5457h0.52494v0.71967z"/>
      </g>
      <g aria-label="¼">
        <path d="m23.741 283.73v-0.508h0.77047v-2.0489l-0.70274 0.4064-0.23707-0.44027 0.89747-0.5334h0.66887v2.6162h0.67734v0.508zm2.8702-0.889 1.4563-2.2352h0.6604l-1.4563 2.2352zm-2.4215 3.6746 1.4224-2.1505h0.66887l-1.4309 2.1505zm4.2249 0v-0.60114h-1.3716v-0.52493l1.1515-1.9981h0.8128v2.0489h0.38947v0.47413h-0.38947v0.60114zm0-2.4977h-0.06773l-0.79587 1.4224h0.8636z"/>
      </g>
      <g aria-label="embedded">
        <path d="m9.9539 270.55q-0.41487 0-0.762-0.13546-0.34713-0.13547-0.59267-0.41487-0.24553-0.28787-0.38947-0.71967-0.13547-0.4318-0.13547-1.0329 0-0.60113 0.127-1.0329 0.127-0.44026 0.36407-0.71967 0.24553-0.2794 0.57574-0.41486 0.33867-0.13547 0.762-0.13547 0.8382 0 1.3039 0.55033 0.47414 0.55034 0.47414 1.7526v0.22014h-2.6924v0.2794q0 0.52493 0.26247 0.80433 0.27093 0.2794 0.7366 0.2794 0.39794 0 0.65194-0.1778 0.26247-0.1778 0.44027-0.49953l0.508 0.4826q-0.23707 0.41487-0.64347 0.66887-0.39794 0.24553-0.9906 0.24553zm-0.0508-3.9116q-0.44027 0-0.67734 0.27093-0.23707 0.26247-0.23707 0.79587v0.1778h1.7695v-0.1778q0-1.0668-0.85514-1.0668z"/>
        <path d="m12.595 270.45v-4.4027h0.87207v0.72814h0.1016q0.26247-0.82974 1.0583-0.82974 0.82127 0 1.0922 0.84667h0.09313q0.13547-0.4318 0.4318-0.635 0.29633-0.21167 0.74507-0.21167 0.56727 0 0.88054 0.4064 0.32174 0.39794 0.32174 1.1769v2.921h-0.87207v-2.8025q0-0.46567-0.1778-0.71121-0.16933-0.24553-0.52494-0.24553-0.32174 0-0.5588 0.21167-0.2286 0.2032-0.2286 0.57573v2.9718h-0.87207v-2.8025q0-0.46567-0.1778-0.71121-0.16933-0.24553-0.52494-0.24553-0.3302 0-0.5588 0.21167-0.2286 0.2032-0.2286 0.57573v2.9718z"/>
        <path d="m19.335 264.18h0.87207v2.5823h0.1016q0.11007-0.38947 0.38947-0.60114 0.28787-0.22013 0.67734-0.22013 0.7874 0 1.1684 0.60114 0.381 0.59266 0.381 1.7018t-0.381 1.7103q-0.381 0.59267-1.1684 0.59267-0.38947 0-0.67734-0.21166-0.2794-0.22014-0.38947-0.60961h-0.1016v0.71967h-0.87207zm1.7272 5.6219q0.44874 0 0.69427-0.2794t0.24553-0.7874v-0.98214q0-0.508-0.24553-0.7874t-0.69427-0.2794q-0.37254 0-0.61807 0.19473-0.23707 0.19474-0.23707 0.53341v1.6595q0 0.33867 0.23707 0.5334 0.24553 0.19473 0.61807 0.19473z"/>
        <path d="m25.465 270.55q-0.41487 0-0.762-0.13546-0.34713-0.13547-0.59267-0.41487-0.24553-0.28787-0.38947-0.71967-0.13547-0.4318-0.13547-1.0329 0-0.60113 0.127-1.0329 0.127-0.44026 0.36407-0.71967 0.24553-0.2794 0.57574-0.41486 0.33867-0.13547 0.762-0.13547 0.8382 0 1.3039 0.55033 0.47414 0.55034 0.47414 1.7526v0.22014h-2.6924v0.2794q0 0.52493 0.26247 0.80433 0.27094 0.2794 0.7366 0.2794 0.39794 0 0.65194-0.1778 0.26247-0.1778 0.44027-0.49953l0.508 0.4826q-0.23707 0.41487-0.64347 0.66887-0.39794 0.24553-0.9906 0.24553zm-0.0508-3.9116q-0.44027 0-0.67734 0.27093-0.23707 0.26247-0.23707 0.79587v0.1778h1.7695v-0.1778q0-1.0668-0.85514-1.0668z"/>
        <path d="m30.579 269.73h-0.1016q-0.11007 0.38947-0.39794 0.60961-0.2794 0.21166-0.66887 0.21166-0.7874 0-1.1684-0.59267-0.381-0.60113-0.381-1.7103t0.381-1.7018q0.381-0.60114 1.1684-0.60114 0.38947 0 0.66887 0.22013 0.28787 0.21167 0.39794 0.60114h0.1016v-2.5823h0.87207v6.2654h-0.87207zm-0.85514 0.0762q0.37254 0 0.6096-0.19473 0.24553-0.19473 0.24553-0.5334v-1.6595q0-0.33867-0.24553-0.53341-0.23707-0.19473-0.6096-0.19473-0.44874 0-0.69427 0.2794t-0.24553 0.7874v0.98214q0 0.508 0.24553 0.7874t0.69427 0.2794z"/>
        <path d="m35.108 269.73h-0.1016q-0.11007 0.38947-0.39794 0.60961-0.2794 0.21166-0.66887 0.21166-0.7874 0-1.1684-0.59267-0.381-0.60113-0.381-1.7103t0.381-1.7018q0.381-0.60114 1.1684-0.60114 0.38947 0 0.66887 0.22013 0.28787 0.21167 0.39794 0.60114h0.1016v-2.5823h0.87207v6.2654h-0.87207zm-0.85514 0.0762q0.37253 0 0.6096-0.19473 0.24553-0.19473 0.24553-0.5334v-1.6595q0-0.33867-0.24553-0.53341-0.23707-0.19473-0.6096-0.19473-0.44874 0-0.69427 0.2794t-0.24553 0.7874v0.98214q0 0.508 0.24553 0.7874t0.69427 0.2794z"/>
        <path d="m38.766 270.55q-0.41487 0-0.762-0.13546-0.34713-0.13547-0.59267-0.41487-0.24553-0.28787-0.38947-0.71967-0.13547-0.4318-0.13547-1.0329 0-0.60113 0.127-1.0329 0.127-0.44026 0.36407-0.71967 0.24554-0.2794 0.57574-0.41486 0.33867-0.13547 0.762-0.13547 0.8382 0 1.3039 0.55033 0.47414 0.55034 0.47414 1.7526v0.22014h-2.6924v0.2794q0 0.52493 0.26247 0.80433 0.27094 0.2794 0.7366 0.2794 0.39794 0 0.65194-0.1778 0.26247-0.1778 0.44027-0.49953l0.508 0.4826q-0.23707 0.41487-0.64347 0.66887-0.39794 0.24553-0.9906 0.24553zm-0.0508-3.9116q-0.44027 0-0.67734 0.27093-0.23707 0.26247-0.23707 0.79587v0.1778h1.7695v-0.1778q0-1.0668-0.85514-1.0668z"/>
        <path d="m43.88 269.73h-0.1016q-0.11007 0.38947-0.39794 0.60961-0.2794 0.21166-0.66887 0.21166-0.7874 0-1.1684-0.59267-0.381-0.60113-0.381-1.7103t0.381-1.7018q0.381-0.60114 1.1684-0.60114 0.38947 0 0.66887 0.22013 0.28787 0.21167 0.39794 0.60114h0.1016v-2.5823h0.87207v6.2654h-0.87207zm-0.85514 0.0762q0.37254 0 0.6096-0.19473 0.24553-0.19473 0.24553-0.5334v-1.6595q0-0.33867-0.24553-0.53341-0.23707-0.19473-0.6096-0.19473-0.44874 0-0.69427 0.2794t-0.24553 0.7874v0.98214q0 0.508 0.24553 0.7874t0.69427 0.2794z"/>
      </g>
    </g>
  </g>
</svg>
