<svg width="100" height="100" version="1.1" viewBox="0 0 26.458 26.458" xmlns="http://www.w3.org/2000/svg">
  <g transform="translate(-3.7529e-6 -270.54)">
    <rect x="3.7529e-6" y="270.54" width="26.458" height="26.458" fill-opacity=".26667" stroke-width=".13229"/>
    <g stroke-width=".13229">
      <g aria-label="Tiny">
        <path d="m10.854 275.35v2.5612h-0.44873v-2.5612h-0.78316v-0.39369h2.0151v0.39369z"/>
        <path d="m12.247 275.29q-0.26246 0-0.26246-0.22437v-0.0762q0-0.22436 0.26246-0.22436t0.26246 0.22436v0.0762q0 0.22437-0.26246 0.22437zm-0.2159 0.41909h0.43603v2.2013h-0.43603z"/>
        <path d="m13.06 277.91v-2.2013h0.43603v0.36407h0.0508q0.13123-0.41486 0.54186-0.41486 0.29633 0 0.4572 0.20319 0.1651 0.19897 0.1651 0.58843v1.4605h-0.43603v-1.4012q0-0.23283-0.0889-0.3556-0.0889-0.12276-0.2794-0.12276-0.17356 0-0.2921 0.10583-0.11853 0.1016-0.11853 0.28786v1.4859z"/>
        <path d="m16.442 275.71h0.4318l-0.85089 2.7008q-0.03387 0.1016-0.0762 0.16933-0.0381 0.0677-0.09737 0.10583-0.05503 0.0423-0.13547 0.055-0.08043 0.0169-0.18626 0.0169h-0.3048v-0.35983h0.39793l0.1016-0.3683-0.73236-2.3198h0.4445l0.3302 1.1557 0.1524 0.66886h0.04657l0.1524-0.66886z"/>
      </g>
      <g aria-label="⅛">
        <path d="m11.87 290.36v-0.254h0.38523v-1.0245l-0.35136 0.2032-0.11853-0.22013 0.44873-0.2667h0.33443v1.3081h0.33866v0.254zm1.4351-0.4445 0.72813-1.1176h0.3302l-0.72813 1.1176zm-1.2107 1.8372 0.71119-1.0752h0.33443l-0.71543 1.0752zm2.0235 0.0254q-0.2667 0-0.41486-0.11853-0.14816-0.11853-0.14816-0.33443 0-0.15663 0.0889-0.254 0.09313-0.0974 0.2286-0.1143v-0.0296q-0.1143-0.0212-0.1905-0.1143-0.0762-0.0931-0.0762-0.23706 0-0.2032 0.13123-0.3048 0.13123-0.10583 0.381-0.10583 0.24976 0 0.381 0.10583 0.13123 0.1016 0.13123 0.3048 0 0.14393-0.0762 0.23706-0.0762 0.0931-0.1905 0.1143v0.0296q0.1397 0.0169 0.2286 0.1143 0.0889 0.0974 0.0889 0.254 0 0.2159-0.14816 0.33443-0.14817 0.11853-0.41486 0.11853zm0-0.23706q0.23283 0 0.23283-0.18627v-0.0974q0-0.18627-0.23283-0.18627-0.23283 0-0.23283 0.18627v0.0974q0 0.18627 0.23283 0.18627zm0-0.70696q0.2159 0 0.2159-0.16933v-0.0931q0-0.16933-0.2159-0.16933-0.2159 0-0.2159 0.16933v0.0931q0 0.16933 0.2159 0.16933z"/>
      </g>
      <g aria-label="embedded">
        <path d="m4.977 283.77q-0.20743 0-0.381-0.0677t-0.29633-0.20743q-0.12277-0.14393-0.19473-0.35983-0.067733-0.2159-0.067733-0.51647 0-0.30056 0.063499-0.51646 0.0635-0.22013 0.18203-0.35983 0.12277-0.1397 0.28786-0.20743 0.16933-0.0677 0.381-0.0677 0.4191 0 0.65193 0.27516 0.23706 0.27517 0.23706 0.87629v0.11007h-1.3462v0.1397q0 0.26246 0.13123 0.40216 0.13547 0.1397 0.3683 0.1397 0.19897 0 0.32596-0.0889 0.13123-0.0889 0.22013-0.24976l0.254 0.2413q-0.11853 0.20743-0.32173 0.33443-0.19897 0.12276-0.4953 0.12276zm-0.0254-1.9558q-0.22013 0-0.33866 0.13546-0.11853 0.13124-0.11853 0.39793v0.0889h0.88476v-0.0889q0-0.53339-0.42756-0.53339z"/>
        <path d="m6.2978 283.72v-2.2013h0.43603v0.36406h0.0508q0.13123-0.41486 0.52916-0.41486 0.41063 0 0.5461 0.42333h0.046566q0.067733-0.2159 0.2159-0.3175 0.14817-0.10583 0.37253-0.10583 0.28363 0 0.44026 0.20319 0.16087 0.19897 0.16087 0.58843v1.4605h-0.43603v-1.4012q0-0.23283-0.088899-0.3556-0.084666-0.12276-0.26246-0.12276-0.16087 0-0.2794 0.10583-0.1143 0.1016-0.1143 0.28786v1.4859h-0.43603v-1.4012q0-0.23283-0.088899-0.3556-0.084666-0.12276-0.26246-0.12276-0.1651 0-0.2794 0.10583-0.1143 0.1016-0.1143 0.28786v1.4859z"/>
        <path d="m9.6675 280.59h0.43603v1.2912h0.0508q0.05503-0.19474 0.19473-0.30057 0.14393-0.11006 0.33866-0.11006 0.3937 0 0.5842 0.30056 0.1905 0.29633 0.1905 0.85089 0 0.55457-0.1905 0.85513-0.1905 0.29633-0.5842 0.29633-0.19473 0-0.33866-0.10583-0.1397-0.11007-0.19473-0.3048h-0.0508v0.35983h-0.43603zm0.86359 2.8109q0.22436 0 0.34713-0.1397t0.12277-0.39369v-0.49107q0-0.254-0.12277-0.39369-0.12277-0.1397-0.34713-0.1397-0.18626 0-0.30903 0.0974-0.11853 0.0974-0.11853 0.2667v0.82973q0 0.16933 0.11853 0.2667 0.12276 0.0974 0.30903 0.0974z"/>
        <path d="m12.732 283.77q-0.20743 0-0.381-0.0677-0.17356-0.0677-0.29633-0.20743-0.12276-0.14393-0.19473-0.35983-0.06773-0.2159-0.06773-0.51647 0-0.30056 0.0635-0.51646 0.0635-0.22013 0.18203-0.35983 0.12277-0.1397 0.28786-0.20743 0.16933-0.0677 0.381-0.0677 0.4191 0 0.65193 0.27516 0.23706 0.27517 0.23706 0.87629v0.11007h-1.3462v0.1397q0 0.26246 0.13123 0.40216 0.13547 0.1397 0.3683 0.1397 0.19896 0 0.32596-0.0889 0.13123-0.0889 0.22013-0.24976l0.254 0.2413q-0.11853 0.20743-0.32173 0.33443-0.19896 0.12276-0.4953 0.12276zm-0.0254-1.9558q-0.22013 0-0.33866 0.13546-0.11853 0.13124-0.11853 0.39793v0.0889h0.88476v-0.0889q0-0.53339-0.42756-0.53339z"/>
        <path d="m15.289 283.36h-0.0508q-0.05503 0.19473-0.19896 0.3048-0.1397 0.10583-0.33443 0.10583-0.3937 0-0.5842-0.29633-0.1905-0.30056-0.1905-0.85513 0-0.55456 0.1905-0.85089 0.1905-0.30056 0.5842-0.30056 0.19473 0 0.33443 0.11006 0.14393 0.10583 0.19896 0.30057h0.0508v-1.2912h0.43603v3.1326h-0.43603zm-0.42756 0.0381q0.18626 0 0.3048-0.0974 0.12276-0.0974 0.12276-0.2667v-0.82973q0-0.16933-0.12276-0.2667-0.11853-0.0974-0.3048-0.0974-0.22436 0-0.34713 0.1397-0.12276 0.13969-0.12276 0.39369v0.49107q0 0.25399 0.12276 0.39369 0.12277 0.1397 0.34713 0.1397z"/>
        <path d="m17.554 283.36h-0.0508q-0.05503 0.19473-0.19896 0.3048-0.1397 0.10583-0.33443 0.10583-0.3937 0-0.5842-0.29633-0.1905-0.30056-0.1905-0.85513 0-0.55456 0.1905-0.85089 0.1905-0.30056 0.5842-0.30056 0.19473 0 0.33443 0.11006 0.14393 0.10583 0.19896 0.30057h0.0508v-1.2912h0.43603v3.1326h-0.43603zm-0.42756 0.0381q0.18627 0 0.3048-0.0974 0.12277-0.0974 0.12277-0.2667v-0.82973q0-0.16933-0.12277-0.2667-0.11853-0.0974-0.3048-0.0974-0.22436 0-0.34713 0.1397-0.12277 0.13969-0.12277 0.39369v0.49107q0 0.25399 0.12277 0.39369 0.12276 0.1397 0.34713 0.1397z"/>
        <path d="m19.383 283.77q-0.20743 0-0.381-0.0677t-0.29633-0.20743q-0.12277-0.14393-0.19473-0.35983-0.06773-0.2159-0.06773-0.51647 0-0.30056 0.0635-0.51646 0.0635-0.22013 0.18203-0.35983 0.12277-0.1397 0.28786-0.20743 0.16933-0.0677 0.381-0.0677 0.4191 0 0.65193 0.27516 0.23706 0.27517 0.23706 0.87629v0.11007h-1.3462v0.1397q0 0.26246 0.13123 0.40216 0.13547 0.1397 0.3683 0.1397 0.19896 0 0.32596-0.0889 0.13123-0.0889 0.22013-0.24976l0.254 0.2413q-0.11853 0.20743-0.32173 0.33443-0.19896 0.12276-0.4953 0.12276zm-0.0254-1.9558q-0.22013 0-0.33866 0.13546-0.11853 0.13124-0.11853 0.39793v0.0889h0.88476v-0.0889q0-0.53339-0.42756-0.53339z"/>
        <path d="m21.94 283.36h-0.0508q-0.05503 0.19473-0.19897 0.3048-0.1397 0.10583-0.33443 0.10583-0.3937 0-0.5842-0.29633-0.1905-0.30056-0.1905-0.85513 0-0.55456 0.1905-0.85089 0.1905-0.30056 0.5842-0.30056 0.19473 0 0.33443 0.11006 0.14393 0.10583 0.19897 0.30057h0.0508v-1.2912h0.43603v3.1326h-0.43603zm-0.42756 0.0381q0.18626 0 0.3048-0.0974 0.12277-0.0974 0.12277-0.2667v-0.82973q0-0.16933-0.12277-0.2667-0.11853-0.0974-0.3048-0.0974-0.22436 0-0.34713 0.1397-0.12277 0.13969-0.12277 0.39369v0.49107q0 0.25399 0.12277 0.39369t0.34713 0.1397z"/>
      </g>
    </g>
  </g>
</svg>
