<svg width="400" height="600" version="1.1" viewBox="0 0 106 159" xmlns="http://www.w3.org/2000/svg">
  <g transform="translate(198 -138)" opacity=".94">
    <rect x="-198" y="138" width="106" height="159" fill-opacity=".267" stroke-width=".648"/>
    <g stroke-width=".265">
      <g aria-label="Small">
        <path d="m-152.65 190.95q-0.66066 0-1.1519-0.24563-0.48279-0.2541-0.83006-0.72842l0.61831-0.56749q0.26257 0.36421 0.60137 0.55902t0.77077 0.19481q1.0503 0 1.0503-0.96558 0-0.38962-0.18634-0.5929-0.18634-0.21175-0.64372-0.32186l-0.48279-0.10164q-0.79618-0.17787-1.1773-0.56749-0.37268-0.39809-0.37268-1.1096 0-0.82159 0.49126-1.2451 0.49973-0.4235 1.3891-0.4235 0.63525 0 1.0672 0.22022 0.44044 0.21175 0.7623 0.66913l-0.61831 0.54208q-0.22869-0.32186-0.51667-0.48279-0.27951-0.16093-0.71148-0.16093-0.48279 0-0.72842 0.20328-0.23716 0.19481-0.23716 0.65219 0 0.37268 0.18634 0.56749 0.19481 0.18634 0.62678 0.28798l0.48279 0.11011q0.4235 0.0932 0.71995 0.23716 0.29645 0.13552 0.48279 0.3388 0.19481 0.20328 0.27951 0.48279 0.0847 0.27104 0.0847 0.63525 0 0.88935-0.51667 1.3552-0.5082 0.45738-1.4399 0.45738z"/>
        <path d="m-149.75 190.84v-4.4044h0.87241v0.72842h0.10164q0.26257-0.83006 1.0588-0.83006 0.82159 0 1.0926 0.847h0.0932q0.13552-0.43197 0.43197-0.63525 0.29645-0.21175 0.74536-0.21175 0.56749 0 0.88088 0.40656 0.32186 0.39809 0.32186 1.1773v2.9222h-0.87241v-2.8036q0-0.46585-0.17787-0.71148-0.1694-0.24563-0.52514-0.24563-0.32186 0-0.55902 0.21175-0.22869 0.20328-0.22869 0.57596v2.973h-0.87241v-2.8036q0-0.46585-0.17787-0.71148-0.1694-0.24563-0.52514-0.24563-0.33033 0-0.55902 0.21175-0.22869 0.20328-0.22869 0.57596v2.973z"/>
        <path d="m-140.18 190.84q-0.32186 0-0.49973-0.17787t-0.17787-0.55902h-0.10164q-0.0932 0.39809-0.38962 0.61831-0.28798 0.22022-0.71148 0.22022-0.62678 0-0.94017-0.33033-0.30492-0.3388-0.30492-0.94864 0-0.66066 0.4235-1.0079t1.2451-0.34727h0.72842v-0.4235q0-0.4235-0.18634-0.61831-0.18634-0.20328-0.5929-0.20328-0.31339 0-0.54208 0.13552-0.22022 0.13552-0.40656 0.45738l-0.51667-0.47432q0.22022-0.37268 0.5929-0.60984 0.38115-0.23716 0.9317-0.23716 0.79618 0 1.1943 0.38962 0.39809 0.38115 0.39809 1.1265v2.27h0.41503v0.71995zm-1.5924-0.57596q0.18634 0 0.3388-0.0593 0.16093-0.0593 0.27104-0.16093 0.11858-0.10164 0.18634-0.23716 0.0678-0.14399 0.0678-0.30492v-0.60984h-0.68607q-0.82159 0-0.82159 0.5929v0.20328q0 0.29645 0.1694 0.44044 0.17787 0.13552 0.47432 0.13552z"/>
        <path d="m-137.94 190.84q-0.45738 0-0.66066-0.20328-0.20328-0.21175-0.20328-0.65219v-5.4123h0.87241v5.5478h0.52514v0.71995z"/>
        <path d="m-135.82 190.84q-0.45738 0-0.66066-0.20328-0.20328-0.21175-0.20328-0.65219v-5.4123h0.87241v5.5478h0.52514v0.71995z"/>
      </g>
      <g aria-label="½">
        <path d="m-147.97 240.87v-0.5082h0.77077v-2.0497l-0.70301 0.40656-0.23716-0.44044 0.89782-0.53361h0.66913v2.6172h0.6776v0.5082zm2.8713-0.88935 1.4568-2.2361h0.66066l-1.4568 2.2361zm-2.4224 3.676 1.423-2.1514h0.66913l-1.4314 2.1514zm5.1413 0h-2.1514v-0.56749l0.91476-0.81312q0.27951-0.2541 0.38115-0.41503 0.11011-0.1694 0.11011-0.36421v-0.11011q0-0.17787-0.11858-0.27951-0.11011-0.10164-0.30492-0.10164-0.20328 0-0.33033 0.11011-0.11858 0.10164-0.19481 0.34727l-0.52514-0.20328q0.2541-0.77077 1.1011-0.77077 1.0333 0 1.0333 0.92323 0 0.1694-0.0423 0.32186-0.0424 0.14399-0.13552 0.28798-0.0932 0.14399-0.24563 0.29645-0.14399 0.14399-0.36421 0.32186l-0.62678 0.5082h1.4992z"/>
      </g>
      <g aria-label="Portrait">
        <path d="m-158.26 204.4v-5.9121h2.3377q0.7623 0 1.1434 0.45738 0.38962 0.44891 0.38962 1.3044t-0.38962 1.3128q-0.38115 0.44891-1.1434 0.44891h-1.4399v2.3885zm0.89782-3.1847h1.3637q0.32186 0 0.48279-0.16093 0.1694-0.1694 0.1694-0.53361v-0.54208q0-0.36421-0.1694-0.52514-0.16093-0.1694-0.48279-0.1694h-1.3637z"/>
        <path d="m-152.06 204.5q-0.4235 0-0.7623-0.13552-0.33033-0.13552-0.57596-0.41503-0.23716-0.27951-0.36421-0.71148-0.12705-0.44044-0.12705-1.0418t0.12705-1.0333q0.12705-0.44044 0.36421-0.71995 0.24563-0.27951 0.57596-0.41503 0.3388-0.13552 0.7623-0.13552 0.41503 0 0.75383 0.13552t0.57596 0.41503q0.24563 0.27951 0.37268 0.71995 0.12705 0.43197 0.12705 1.0333t-0.12705 1.0418q-0.12705 0.43197-0.37268 0.71148-0.23716 0.27951-0.57596 0.41503t-0.75383 0.13552zm0-0.72842q0.44044 0 0.66913-0.26257 0.23716-0.26257 0.23716-0.79618v-1.0333q0-0.53361-0.23716-0.79618-0.22869-0.26257-0.66913-0.26257t-0.6776 0.26257q-0.22869 0.26257-0.22869 0.79618v1.0333q0 0.53361 0.22869 0.79618 0.23716 0.26257 0.6776 0.26257z"/>
        <path d="m-149.32 204.4v-4.4044h0.87241v0.87241h0.10164q0.0932-0.4235 0.34727-0.64372 0.26257-0.22869 0.66066-0.22869h0.22022v0.88935h-0.37268q-0.46585 0-0.71148 0.17787t-0.24563 0.56749v2.7697z"/>
        <path d="m-145.18 204.4q-0.45738 0-0.66913-0.20328-0.20328-0.20328-0.20328-0.66066v-2.8205h-0.60984v-0.71995h0.3388q0.21175 0 0.27951-0.0932 0.0762-0.10164 0.0762-0.31339v-0.79618h0.78771v1.2027h0.82159v0.71995h-0.82159v2.9645h0.7623v0.71995z"/>
        <path d="m-143.48 204.4v-4.4044h0.87241v0.87241h0.10164q0.0932-0.4235 0.34727-0.64372 0.26257-0.22869 0.66066-0.22869h0.22022v0.88935h-0.37268q-0.46585 0-0.71148 0.17787t-0.24563 0.56749v2.7697z"/>
        <path d="m-137.77 204.4q-0.32186 0-0.49973-0.17787t-0.17787-0.55902h-0.10164q-0.0932 0.39809-0.38962 0.61831-0.28798 0.22022-0.71148 0.22022-0.62678 0-0.94017-0.33033-0.30492-0.3388-0.30492-0.94864 0-0.66066 0.4235-1.0079t1.2451-0.34727h0.72842v-0.4235q0-0.4235-0.18634-0.61831-0.18634-0.20328-0.5929-0.20328-0.31339 0-0.54208 0.13552-0.22022 0.13552-0.40656 0.45738l-0.51667-0.47432q0.22022-0.37268 0.5929-0.60984 0.38115-0.23716 0.9317-0.23716 0.79618 0 1.1943 0.38962 0.39809 0.38115 0.39809 1.1265v2.27h0.41503v0.71995zm-1.5924-0.57596q0.18634 0 0.3388-0.0593 0.16093-0.0593 0.27104-0.16093 0.11858-0.10164 0.18634-0.23716 0.0678-0.14399 0.0678-0.30492v-0.60984h-0.68607q-0.82159 0-0.82159 0.5929v0.20328q0 0.29645 0.1694 0.44044 0.17787 0.13552 0.47432 0.13552z"/>
        <path d="m-135.95 199.15q-0.52514 0-0.52514-0.44891v-0.15246q0-0.44891 0.52514-0.44891t0.52514 0.44891v0.15246q0 0.44891-0.52514 0.44891zm-0.43197 0.83853h0.87241v4.4044h-0.87241z"/>
        <path d="m-133.24 204.4q-0.45738 0-0.66913-0.20328-0.20328-0.20328-0.20328-0.66066v-2.8205h-0.60984v-0.71995h0.3388q0.21175 0 0.27951-0.0932 0.0762-0.10164 0.0762-0.31339v-0.79618h0.78771v1.2027h0.82159v0.71995h-0.82159v2.9645h0.7623v0.71995z"/>
      </g>
    </g>
  </g>
</svg>
